<svg xmlns="http://www.w3.org/2000/svg" viewBox="0 0 914.52 774.76"><path d="M931.72 799.36H-8.61V.48h940.33zM46 185.82l19.2-19.2a12 12 0 000-17l-21.87-21.85a12 12 0 00-17 0L7.16 147a12 12 0 000 17l21.89 21.88a12 12 0 0016.95-.06zm42 42l19.2-19.2a12 12 0 000-17l-21.9-21.88a12 12 0 00-17 0l-19.2 19.2a12 12 0 000 17L71 227.79a12 12 0 0017 0zm39.07-39.07l19.2-19.2a12 12 0 000-17l-21.88-21.88a12 12 0 00-17 0l-19.2 19.2a12 12 0 000 17l21.88 21.88a12 12 0 0016.98-.03zm-42-42l19.2-19.2a12 12 0 000-17L82.4 88.7a12 12 0 00-17 0l-19.2 19.2a12 12 0 000 17l21.88 21.89a12 12 0 0017-.03zm39.19-39.29l19.2-19.2a12 12 0 000-17l-21.87-21.84a12 12 0 00-17 0l-19.2 19.2a12 12 0 000 17l21.88 21.88a12 12 0 0017-.03zm42 42l19.2-19.2a12 12 0 000-17l-21.91-21.87a12 12 0 00-17 0l-19.2 19.2a12 12 0 000 17l21.88 21.88a12 12 0 0017-.03zm39.07-39.07l19.2-19.2a12 12 0 000-17l-21.91-21.87a12 12 0 00-17 0l-19.2 19.2a12 12 0 000 17l21.88 21.88a12 12 0 0017-.03zm-42-42l19.2-19.2a12.06 12.06 0 000-17l-21.88-21.84a12 12 0 00-17 0l-19.2 19.2a12 12 0 000 17l21.89 21.89a12 12 0 0017-.03zM130 269.86l19.2-19.2a12 12 0 000-17l-21.84-21.86a12 12 0 00-17 0L91.19 231a12 12 0 000 17l21.88 21.88a12 12 0 0016.93-.02zm42 42l19.2-19.2a12 12 0 000-17l-21.88-21.88a12 12 0 00-17 0L133.16 273a12 12 0 000 17L155 311.82a12 12 0 0017 0zm39.07-39.06l19.2-19.2a12 12 0 000-17l-21.88-21.9a12 12 0 00-17 0l-19.2 19.2a12 12 0 000 17l21.89 21.89a12 12 0 0017-.03zm-42-42l19.2-19.2a12 12 0 000-17l-21.88-21.88a12 12 0 00-17 0l-19.2 19.2a12 12 0 000 17l21.88 21.88a12 12 0 0017.04-.01zm39.19-39.28l19.2-19.2a12 12 0 000-17l-21.89-21.89a12 12 0 00-17 0l-19.2 19.2a12.06 12.06 0 000 17l21.88 21.88a12.06 12.06 0 0017.05 0zm42 42l19.2-19.2a12 12 0 000-17l-21.88-21.88a12 12 0 00-17 0l-19.2 19.2a12 12 0 000 17l21.88 21.88a12 12 0 0017-.05zm39.07-39.06l19.2-19.2a12 12 0 000-17l-21.88-21.89a12 12 0 00-17 0l-19.2 19.2a12 12 0 000 17l21.88 21.89a12 12 0 0017-.05zm-42-42l19.2-19.2a12 12 0 000-17l-21.85-21.87a12 12 0 00-17 0l-19.2 19.2a12 12 0 000 17l21.88 21.88a12 12 0 0017-.03zM214 352.8l19.2-19.2a12 12 0 000-17l-21.89-21.89a12 12 0 00-17 0l-19.2 19.2a12.06 12.06 0 000 17L197 352.8a12 12 0 0017 0zm42 42l19.2-19.2a12 12 0 000-17l-21.88-21.88a12 12 0 00-17 0l-19.2 19.2a12 12 0 000 17L239 394.76a12 12 0 0017 0zm39-39.1l19.2-19.2a12 12 0 000-17l-21.88-21.89a12 12 0 00-17 0l-19.2 19.2a12 12 0 000 17L278 355.7a12 12 0 0017 0zm-42-42l19.2-19.2a12 12 0 000-17l-21.88-21.88a12 12 0 00-17 0l-19.2 19.2a12 12 0 000 17L236 313.7a12 12 0 0017.06.03zm39.19-39.28l19.2-19.2a12 12 0 000-17l-21.82-21.82a12 12 0 00-17 0l-19.2 19.19a12 12 0 000 17l21.88 21.88a12 12 0 0017-.02zm42 42l19.19-19.2a12 12 0 000-17l-21.88-21.88a12 12 0 00-17 0l-19.2 19.2a12 12 0 000 17l21.88 21.88a12 12 0 0017.04-.01zm39.06-39.06l19.2-19.2a12 12 0 000-17l-21.85-21.87a12 12 0 00-17 0l-19.2 19.2a12 12 0 000 17l21.88 21.89a12 12 0 0017-.03zm-42-42l19.2-19.2a12 12 0 000-17l-21.89-21.88a12 12 0 00-17 0l-19.2 19.2a12 12 0 000 17l21.89 21.88a12 12 0 0017.07.02zM298 436.83l19.2-19.2a12 12 0 000-17l-21.88-21.88a12 12 0 00-17 0L259.17 398a12 12 0 000 17l21.88 21.88a12 12 0 0016.95-.05zm42 42l19.2-19.2a12 12 0 000-17l-21.88-21.88a12 12 0 00-17 0L301.14 440a12 12 0 000 17L323 478.8a12 12 0 0017 0zm39.07-39.07l19.2-19.2a12 12 0 000-17l-21.89-21.88a12 12 0 00-17 0l-19.2 19.2a12 12 0 000 17l21.89 21.88a12 12 0 0016.99-.03zm-42-42l19.2-19.2a12 12 0 000-17l-21.88-21.88a12 12 0 00-17 0l-19.2 19.2a12 12 0 000 17l21.88 21.88a12 12 0 0017.02 0zm39.19-39.28l19.2-19.2a12 12 0 000-17l-21.89-21.88a12 12 0 00-17 0l-19.2 19.2a12 12 0 000 17l21.89 21.88a12 12 0 0017.02 0zm42 42l19.2-19.2a12 12 0 000-17l-21.9-21.88a12 12 0 00-17 0l-19.2 19.2a12 12 0 000 17l21.88 21.88a12 12 0 0017-.03zm39.07-39.07l19.2-19.2a12 12 0 000-17l-21.88-21.88a12 12 0 00-17 0l-19.2 19.2a12 12 0 000 17l21.88 21.88a12 12 0 0016.98-.03zm-42-42l19.2-19.2a12 12 0 000-17l-21.88-21.88a12 12 0 00-17 0l-19.2 19.2a12 12 0 000 17l21.88 21.88a12 12 0 0017.01 0zM244.17 70.66l19.2-19.2a12 12 0 000-17l-21.88-21.85a12 12 0 00-17 0l-19.2 19.2a12 12 0 000 17l21.91 21.85a12 12 0 0016.97 0zm42 42l19.2-19.2a12 12 0 000-17l-21.91-21.89a12 12 0 00-17 0l-19.2 19.2a12 12 0 000 17l21.88 21.89a12 12 0 0017-.03zm39.07-39.07l19.2-19.2a12 12 0 000-17l-21.91-21.88a12 12 0 00-17 0l-19.19 19.2a12 12 0 000 17l21.88 21.88a12 12 0 0016.99-.03zm-42-42l19.2-19.2a12 12 0 000-17l-21.88-21.85a12 12 0 00-17 0l-19.2 19.2a12 12 0 000 17l21.88 21.88a12 12 0 0017-.03zm39.19-39.28l19.2-19.2a12 12 0 000-17l-21.89-21.85a12 12 0 00-17 0l-19.2 19.2a12 12 0 000 17l21.92 21.85a12 12 0 0016.97 0zm42 42l19.2-19.2a12 12 0 000-17l-21.92-21.89a12 12 0 00-17 0l-19.2 19.2a12 12 0 000 17l21.88 21.89a12 12 0 0017-.03zm39.03-39.1L422.66-24a12 12 0 000-17l-21.88-21.84a12 12 0 00-17 0l-19.2 19.2a12 12 0 000 17l21.91 21.85a12 12 0 0016.97 0zm-42-42L380.69-66a12 12 0 000-17l-21.88-21.88a12 12 0 00-17 0l-19.2 19.2a12 12 0 000 17l21.88 21.88a12 12 0 0017.01.04zM328.2 154.7l19.2-19.2a12 12 0 000-17l-21.88-21.86a12 12 0 00-17 0l-19.2 19.2a12 12 0 000 17l21.88 21.89a12 12 0 0017-.03zm42 42l19.2-19.2a12 12 0 000-17l-21.89-21.88a12 12 0 00-17 0l-19.2 19.2a12 12 0 000 17l21.89 21.88a12 12 0 0016.97-.04zm39.06-39.07l19.2-19.2a12 12 0 000-17l-21.91-21.89a12 12 0 00-17 0l-19.2 19.2a12 12 0 000 17l21.88 21.88a12 12 0 0017-.03zm-42-42l19.2-19.2a12 12 0 000-17l-21.87-21.86a12 12 0 00-17 0l-19.2 19.2a12 12 0 000 17l21.88 21.89a12 12 0 0017-.03zm39.18-39.28l19.2-19.2a12 12 0 000-17l-21.87-21.86a12 12 0 00-17 0l-19.2 19.2a12 12 0 000 17l21.88 21.89a12 12 0 0017-.03zm42 42l19.2-19.2a12 12 0 000-17l-21.9-21.89a12 12 0 00-17 0l-19.2 19.2a12 12 0 000 17l21.88 21.88a12 12 0 0017-.03zm39.07-39.07L506.69 60a12 12 0 000-17L484.8 21.19a12 12 0 00-17 0l-19.2 19.2a12 12 0 000 17l21.89 21.88a12 12 0 0017-.03zm-42-42l19.2-19.2a12 12 0 000-17l-21.87-21.86a12 12 0 00-17 0l-19.2 19.2a12 12 0 000 17l21.88 21.88a12 12 0 0017-.02zm-33.36 200.36l19.2-19.2a12 12 0 000-17l-21.88-21.89a12 12 0 00-17 0l-19.2 19.2a12 12 0 000 17l21.88 21.89a12 12 0 0017 0zm42 42l19.2-19.2a12 12 0 000-17l-21.88-21.88a12 12 0 00-17 0l-19.2 19.2a12 12 0 000 17l21.88 21.88a12 12 0 0016.97-.04zm39.07-39.07l19.2-19.2a12 12 0 000-17l-21.88-21.88a12 12 0 00-17 0l-19.2 19.2a12 12 0 000 17l21.88 21.88a12 12 0 0016.97-.04zm-42-42l19.2-19.2a12 12 0 000-17l-21.88-21.89a12 12 0 00-17 0l-19.2 19.2a12 12 0 000 17l21.88 21.89a12 12 0 0017 0zm39.19-39.28l19.2-19.2a12 12 0 000-17l-21.89-21.89a12 12 0 00-17 0l-19.2 19.2a12 12 0 000 17l21.89 21.89a12 12 0 0017 0zm42 42l19.2-19.2a12 12 0 000-17l-21.92-21.89a12 12 0 00-17 0l-19.2 19.2a12 12 0 000 17l21.88 21.88a12 12 0 0017-.03zm39.07-39.07l19.2-19.2a12 12 0 000-17l-21.88-21.88a12 12 0 00-17 0l-19.2 19.2a12 12 0 000 17l21.88 21.88a12 12 0 0016.96-.04zm-42-42l19.2-19.2a12 12 0 000-17l-21.89-21.86a12 12 0 00-17 0l-19.2 19.2a12.06 12.06 0 000 17l21.88 21.88a12.06 12.06 0 0017.01-.02zm-33.3 201.45l19.2-19.2a12 12 0 000-17l-21.88-21.85a12 12 0 00-17 0l-19.2 19.2a12 12 0 000 17l21.88 21.88a12 12 0 0017-.03zm42 42l19.2-19.2a12 12 0 000-17l-21.89-21.89a12 12 0 00-17 0l-19.2 19.2a12 12 0 000 17l21.89 21.89a12 12 0 0016.97-.03zm39.07-39.07l19.2-19.2a12 12 0 000-17l-21.89-21.89a12 12 0 00-17 0l-19.2 19.2a12.06 12.06 0 000 17l21.88 21.88a12.06 12.06 0 0016.98-.02zm-42-42l19.2-19.2a12 12 0 000-17l-21.88-21.88a12 12 0 00-17 0l-19.2 19.2a12 12 0 000 17l21.88 21.88a12 12 0 0017 0zm39.18-39.28l19.2-19.2a12 12 0 000-17l-21.88-21.88a12 12 0 00-17 0l-19.2 19.2a12 12 0 000 17l21.88 21.88a12 12 0 0017 0zm42 42l19.2-19.2a12 12 0 000-17l-21.88-21.89a12 12 0 00-17 0l-19.2 19.2a12 12 0 000 17l21.88 21.89a12 12 0 0016.97-.03zm39.07-39.07l19.2-19.2a12 12 0 000-17l-21.88-21.88a12 12 0 00-17 0l-19.2 19.2a12 12 0 000 17l21.89 21.88a12 12 0 0016.96-.03zm-42-42l19.2-19.2a12 12 0 000-17l-21.88-21.85a12 12 0 00-17 0l-19.2 19.2a12 12 0 000 17l21.88 21.88a12 12 0 0017-.03zm-32 200.29l19.2-19.2a12 12 0 000-17l-21.89-21.89a12 12 0 00-17 0l-19.2 19.2a12.06 12.06 0 000 17l21.89 21.88a12 12 0 0017.04.01zm42 42l19.2-19.2a12 12 0 000-17l-21.88-21.88a12 12 0 00-17 0l-19.2 19.2a12 12 0 000 17l21.88 21.88a12 12 0 0017-.04zm39.07-39.06l19.2-19.2a12 12 0 000-17l-21.88-21.88a12 12 0 00-17 0l-19.2 19.2a12 12 0 000 17l21.88 21.89a12 12 0 0017-.05zm-42-42l19.2-19.2a12 12 0 000-17l-21.88-21.88a12 12 0 00-17 0l-19.2 19.2a12 12 0 000 17l21.88 21.88a12 12 0 0017.03-.01zm39.19-39.28L679 307a12 12 0 000-17l-21.88-21.89a12 12 0 00-17 0l-19.2 19.2a12 12 0 000 17l21.88 21.88a12 12 0 0016.99 0zm42 42L721 349a12 12 0 000-17l-21.93-21.9a12 12 0 00-17 0l-19.2 19.2a12 12 0 000 17l21.88 21.88a12 12 0 0017-.03zm39.07-39.06l19.2-19.2a12 12 0 000-17L738.14 271a12 12 0 00-17 0L702 290.23a12 12 0 000 17l21.88 21.89a12 12 0 0016.94-.03zm-42-42l19.2-19.2a12 12 0 000-17l-21.89-21.88a12 12 0 00-17 0L660 248.27a12 12 0 000 17l21.89 21.88a12 12 0 0016.97-.03zm-33.3 201.45l19.2-19.2a12 12 0 000-17l-21.88-21.88a12 12 0 00-17 0l-19.2 19.2a12 12 0 000 17l21.88 21.88a12 12 0 0017.03-.02zm42 42l19.2-19.2a12 12 0 000-17l-21.88-21.88a12 12 0 00-17 0l-19.2 19.19a12 12 0 000 17l21.88 21.88a12 12 0 0017-.04zm39.07-39.07l19.2-19.2a12 12 0 000-17l-21.89-21.88a12 12 0 00-17 0l-19.2 19.2a12 12 0 000 17l21.89 21.88a12 12 0 0017-.05zm-42-42l19.2-19.2a12 12 0 000-17L702 391.45a12 12 0 00-17 0l-19.2 19.2a12 12 0 000 17l21.88 21.88a12 12 0 0016.95-.03zm39.19-39.28L763 391a12 12 0 000-17l-21.89-21.88a12 12 0 00-17 0L705 371.37a12 12 0 000 17l21.88 21.88a12 12 0 0016.94-.03zm42 42L805 433a12 12 0 000-17l-21.9-21.86a12 12 0 00-17 0l-19.2 19.2a12 12 0 000 17l21.88 21.88a12 12 0 0017-.03zm39.07-39.07l19.2-19.2a12 12 0 000-17l-21.88-21.88a12 12 0 00-17 0L786 374.27a12 12 0 000 17l21.88 21.88a12 12 0 0016.97-.03zm-42-42l19.2-19.2a12 12 0 000-17L780.2 313.1a12 12 0 00-17 0L744 332.3a12 12 0 000 17l21.88 21.88a12 12 0 0017-.03zm-33.34 200.34l19.2-19.2a12 12 0 000-17l-21.89-21.88a12 12 0 00-17 0l-19.2 19.2a12 12 0 000 17l21.89 21.88a12 12 0 0017 0zm42 42l19.2-19.2a12 12 0 000-17l-21.92-21.88a12 12 0 00-17 0l-19.2 19.2a12 12 0 000 17l21.88 21.88a12 12 0 0017-.03zm39.07-39.07l19.2-19.2a12 12 0 000-17l-21.88-21.88a12 12 0 00-17 0l-19.2 19.2a12 12 0 000 17l21.88 21.88a12 12 0 0016.96-.03zm-42-42l19.2-19.2a12 12 0 000-17l-21.89-21.85a12 12 0 00-17 0l-19.2 19.2a12 12 0 000 17l21.88 21.88a12 12 0 0017-.03zm39.19-39.28L847 474a12 12 0 000-17l-21.88-21.88a12 12 0 00-17 0l-19.2 19.2a12 12 0 000 17l21.88 21.88a12 12 0 0016.97-.04zm42 42l19.19-19.2a12 12 0 000-17l-21.88-21.88a12 12 0 00-17 0l-19.2 19.2a12 12 0 000 17l21.88 21.88a12 12 0 0016.97-.03zm39.06-39.07l19.2-19.2a12 12 0 000-17L906.12 438a12 12 0 00-17 0L870 457.21a12 12 0 000 17l21.88 21.88a12 12 0 0016.92-.03zm-42-42l19.2-19.2a12 12 0 000-17L864.15 396a12 12 0 00-17 0L828 415.24a12 12 0 000 17l21.89 21.88a12 12 0 0016.95-.03zm-33.3 201.46l19.2-19.2a12 12 0 000-17l-21.88-21.89a12 12 0 00-17 0l-19.2 19.2a12 12 0 000 17l21.88 21.89a12 12 0 0017 0zm42 42l19.2-19.2a12 12 0 000-17l-21.88-21.88a12 12 0 00-17 0l-19.2 19.2a12 12 0 000 17l21.88 21.88a12 12 0 0016.97-.04zm39.07-39.07l19.2-19.2a12 12 0 000-17l-21.89-21.88a12 12 0 00-17 0l-19.2 19.2a12 12 0 000 17l21.89 21.88a12 12 0 0016.97-.04zm-42-42l19.2-19.2a12 12 0 000-17l-21.88-21.88a12 12 0 00-17 0l-19.2 19.2a12 12 0 000 17l21.88 21.88a12 12 0 0017 0zm39.19-39.28L931 558a12 12 0 000-17l-21.89-21.89a12 12 0 00-17 0l-19.2 19.2a12 12 0 000 17l21.89 21.89a12 12 0 0017 0zm42 42L973 600a12 12 0 000-17l-21.88-21.88a12 12 0 00-17 0l-19.2 19.2a12 12 0 000 17l21.88 21.88a12 12 0 0016.96-.04zm39.07-39.07l19.2-19.2a12 12 0 000-17L990.15 522a12 12 0 00-17 0L954 541.24a12 12 0 000 17l21.88 21.88a12 12 0 0016.95-.03zm-42-42l19.2-19.2a12 12 0 000-17l-21.88-21.88a12 12 0 00-17 0L912 499.28a12 12 0 000 17l21.88 21.88a12 12 0 0016.98-.03zM382 520.73l19.2-19.2a12 12 0 000-17l-21.88-21.88a12 12 0 00-17 0l-19.2 19.2a12 12 0 000 17L365 520.73a12 12 0 0017 0zm42 42l19.2-19.2a12 12 0 000-17l-21.88-21.88a12 12 0 00-17 0l-19.2 19.2a12 12 0 000 17L407 562.74a12 12 0 0016.91-.04zm39-39.1l19.2-19.2a12 12 0 000-17l-21.9-21.86a12 12 0 00-17 0l-19.2 19.2a12 12 0 000 17l21.9 21.86a12 12 0 0017 0zm-42-42l19.2-19.2a12 12 0 000-17l-21.89-21.88a12 12 0 00-17 0l-19.2 19.2a12 12 0 000 17L404 481.63a12 12 0 0017 .03zm39.18-39.28l19.2-19.2a12 12 0 000-17l-21.88-21.88a12 12 0 00-17 0l-19.2 19.2a12 12 0 000 17l21.88 21.88a12 12 0 0017.02.03zm42 42l19.2-19.2a12 12 0 000-17l-21.89-21.89a12 12 0 00-17 0l-19.2 19.2a12 12 0 000 17l21.89 21.89a12 12 0 0016.99 0zm39.07-39.07l19.2-19.2a12 12 0 000-17l-21.89-21.89a12 12 0 00-17 0l-19.2 19.2a12 12 0 000 17l21.88 21.89a12.06 12.06 0 0017 0zm-42-42l19.2-19.2a12 12 0 000-17l-21.88-21.88a12 12 0 00-17 0l-19.2 19.2a12 12 0 000 17l21.88 21.88a12 12 0 0017.02.03zM466 604.76l19.2-19.2a12 12 0 000-17l-21.89-21.88a12 12 0 00-17 0l-19.2 19.2a12 12 0 000 17L449 604.76a12 12 0 0017 0zm42 42l19.2-19.2a12 12 0 000-17l-21.88-21.88a12 12 0 00-17 0l-19.2 19.2a12 12 0 000 17L491 646.73a12 12 0 0016.94 0zm39-39.1l19.2-19.2a12 12 0 000-17l-21.88-21.88a12 12 0 00-17 0l-19.2 19.2a12 12 0 000 17L530 607.66a12 12 0 0017 0zm-42-42l19.2-19.2a12 12 0 000-17l-21.88-21.89a12 12 0 00-17 0l-19.2 19.2a12 12 0 000 17L488 565.66a12 12 0 0017 .04zm39.19-39.29l19.2-19.2a12 12 0 000-17l-21.88-21.88a12 12 0 00-17 0l-19.2 19.2a12 12 0 000 17l21.89 21.88a12 12 0 0017.03.04zm42 42l19.2-19.2a12 12 0 000-17l-21.88-21.88a12 12 0 00-17 0l-19.2 19.2a12 12 0 000 17l21.88 21.88a12 12 0 0017 .01zm39.07-39.07l19.2-19.2a12 12 0 000-17l-21.88-21.88a12 12 0 00-17 0l-19.2 19.2a12 12 0 000 17l21.88 21.88a12 12 0 0017 .01zm-42-42l19.2-19.2a12 12 0 000-17l-21.89-21.89a12 12 0 00-17 0l-19.2 19.2a12 12 0 000 17l21.89 21.89a12 12 0 0017.04.05zm-33.33 200.4l19.2-19.2a12 12 0 000-17l-21.88-21.88a12 12 0 00-17 0l-19.2 19.2a12 12 0 000 17L533 687.7a12 12 0 0016.93 0zm42 42l19.2-19.2a12 12 0 000-17l-21.88-21.88a12 12 0 00-17 0L553 690.82a12 12 0 000 17l21.88 21.88a12 12 0 0017.01-.03zM631 690.6l19.2-19.2a12 12 0 000-17l-21.88-21.88a12 12 0 00-17 0l-19.2 19.2a12 12 0 000 17L614 690.6a12 12 0 0017 0zm-42-42l19.2-19.2a12 12 0 000-17l-21.89-21.89a12 12 0 00-17 0l-19.2 19.2a12 12 0 000 17L572 648.64a12 12 0 0017 0zm39.18-39.29l19.2-19.2a12 12 0 000-17L625.5 551.3a12 12 0 00-17 0l-19.2 19.2a12 12 0 000 17l21.88 21.88a12 12 0 0017-.03zm42 42l19.2-19.2a12 12 0 000-17l-21.89-21.88a12 12 0 00-17 0l-19.2 19.2a12 12 0 000 17l21.89 21.88a12 12 0 0016.97.01zm39.07-39.07l19.2-19.2a12 12 0 000-17l-21.92-21.84a12 12 0 00-17 0l-19.2 19.2a12 12 0 000 17l21.89 21.88a12 12 0 0017-.03zm-42-42l19.2-19.2a12 12 0 000-17l-21.88-21.89a12 12 0 00-17 0l-19.2 19.2a12 12 0 000 17l21.88 21.89a12 12 0 0017 .05zM634 771.74l19.2-19.2a12 12 0 000-17l-21.89-21.88a12 12 0 00-17 0l-19.2 19.2a12 12 0 000 17L617 771.74a12 12 0 0017 0zm42 42l19.2-19.2a12 12 0 000-17l-21.88-21.88a12 12 0 00-17 0l-19.2 19.2a12 12 0 000 17L659 813.7a12 12 0 0016.92 0zm39-39.1l19.2-19.2a12 12 0 000-17l-21.88-21.89a12 12 0 00-17 0l-19.2 19.2a12 12 0 000 17L698 774.64a12 12 0 0017 0zm-42-42l19.2-19.2a12 12 0 000-17l-21.88-21.88a12 12 0 00-17 0l-19.2 19.2a12 12 0 000 17L656 732.64a12 12 0 0017 .03zm39.19-39.28l19.2-19.2a12 12 0 000-17l-21.88-21.88a12 12 0 00-17 0l-19.19 19.2a12 12 0 000 17l21.88 21.88a12 12 0 0017.01.03zm42 42l19.2-19.2a12 12 0 000-17l-21.9-21.86a12 12 0 00-17 0l-19.2 19.2a12 12 0 000 17l21.88 21.88a12 12 0 0017-.03zm39.07-39.06l19.2-19.2a12 12 0 000-17l-21.88-21.89a12 12 0 00-17 0l-19.2 19.2a12 12 0 000 17l21.88 21.89a12 12 0 0016.98-.01zm-42-42l19.2-19.2a12 12 0 000-17l-21.89-21.88a12 12 0 00-17 0l-19.2 19.2a12 12 0 000 17l21.89 21.88a12 12 0 0017.02.02zM-111.55 342l19.2-19.2a12 12 0 000-17l-21.88-21.88a12 12 0 00-17 0l-19.2 19.2a12 12 0 000 17l21.91 21.88a12 12 0 0016.97 0zm42 42l19.2-19.2a12 12 0 000-17l-21.88-21.89a12 12 0 00-17 0l-19.2 19.2a12 12 0 000 17L-86.55 384a12 12 0 0016.96-.08zm39.07-39.07l19.2-19.2a12 12 0 000-17L-33.2 286.8a12 12 0 00-17 0L-69.37 306a12 12 0 000 17l21.88 21.88a12 12 0 0016.97-.03zm-42-42l19.2-19.2a12 12 0 000-17l-21.89-21.88a12 12 0 00-17 0l-19.2 19.2a12 12 0 000 17l21.89 21.88a12 12 0 0017-.05zm39.18-39.33l19.2-19.2a12 12 0 000-17L-36 205.55a12 12 0 00-17 0l-19.2 19.2a12 12 0 000 17l21.88 21.88a12 12 0 0017.02-.03zm42 42l19.2-19.2a12 12 0 000-17L6 247.51a12 12 0 00-17 0l-19.2 19.2a12.06 12.06 0 000 17l21.9 21.86a12 12 0 0016.97 0zm39.04-39.1l19.2-19.2a12 12 0 000-17l-21.89-21.85a12 12 0 00-17 0l-19.2 19.2a12 12 0 000 17l21.91 21.85a12 12 0 0016.98 0zm-42-42L25 205.33a12 12 0 000-17L3.09 166.48a12 12 0 00-17 0l-19.2 19.2a12 12 0 000 17l21.88 21.88a12 12 0 0017-.03zM-27.52 426l19.19-19.2a12 12 0 000-17l-21.88-21.89a12 12 0 00-17 0l-19.2 19.2a12 12 0 000 17L-44.5 426a12.06 12.06 0 0016.98 0zm42 42l19.2-19.2a12 12 0 000-17l-21.92-21.9a12 12 0 00-17 0l-19.2 19.2a12 12 0 000 17L-2.53 468a12 12 0 0016.97 0zm39.07-39.07l19.2-19.2a12 12 0 000-17l-21.92-21.9a12 12 0 00-17 0L14.66 390a12 12 0 000 17l21.88 21.88a12 12 0 0016.97 0zm-42-42l19.2-19.2a12 12 0 000-17L8.86 328.86a12 12 0 00-17 0l-19.2 19.2a12 12 0 000 17l21.88 21.88a12 12 0 0017-.02zm39.19-39.28l19.2-19.2a12 12 0 000-17l-21.89-21.87a12.06 12.06 0 00-17 0l-19.2 19.2a12 12 0 000 17l21.89 21.89a12 12 0 0016.99-.03zm42 42l19.2-19.2a12 12 0 000-17L90 331.55a12 12 0 00-17 0l-19.2 19.2a12 12 0 000 17l21.92 21.85a12 12 0 0016.97 0zm39.07-39.07l19.2-19.2a12 12 0 000-17l-21.88-21.88a12 12 0 00-17 0l-19.2 19.2a12 12 0 000 17l21.88 21.88a12 12 0 0016.95-.05zm-42-42l19.2-19.2a12 12 0 000-17l-21.9-21.87a12 12 0 00-17 0l-19.2 19.2a12.06 12.06 0 000 17l21.89 21.88a12 12 0 0017-.02zM56.43 508.93l19.2-19.2a12 12 0 000-17l-21.88-21.86a12 12 0 00-17 0l-19.2 19.2a12 12 0 000 17l21.88 21.89a12 12 0 0017-.03zm42 42l19.2-19.2a12 12 0 000-17l-21.92-21.89a12 12 0 00-17 0L59.54 512a12 12 0 000 17l21.88 21.88a12 12 0 0016.97.01zm39.07-39.07l19.2-19.2a12 12 0 000-17l-21.88-21.88a12 12 0 00-17 0L98.61 473a12 12 0 000 17l21.88 21.88a12 12 0 0016.97-.06zm-42-42l19.2-19.2a12 12 0 000-17L92.81 411.8a12 12 0 00-17 0L56.64 431a12.06 12.06 0 000 17l21.89 21.88a12 12 0 0016.97-.02zm39.18-39.28l19.2-19.2a12 12 0 000-17L132 372.52a12 12 0 00-17 0l-19.2 19.2a12 12 0 000 17l21.88 21.89a12 12 0 0017-.03zm42 42l19.2-19.2a12 12 0 000-17L174 414.49a12 12 0 00-17 0l-19.2 19.2a12 12 0 000 17l21.89 21.88a12 12 0 0016.96-.03zm39.07-39.07l19.2-19.2a12 12 0 000-17L213 375.42a12 12 0 00-17 0l-19.2 19.2a12 12 0 000 17l21.89 21.88a12 12 0 0017.03-.03zm-42-42l19.2-19.2a12 12 0 000-17l-21.88-21.88a12 12 0 00-17 0l-19.2 19.19a12 12 0 000 17l21.88 21.88a12 12 0 0017 .01zM140.46 593l19.2-19.2a12 12 0 000-17l-21.89-21.88a12 12 0 00-17 0l-19.2 19.2a12 12 0 000 17L123.48 593a12 12 0 0016.98 0zm42 42l19.2-19.2a12 12 0 000-17l-21.88-21.89a12 12 0 00-17 0l-19.2 19.2a12 12 0 000 17L165.46 635a12 12 0 0016.96-.07zm39.07-39.07l19.2-19.2a12 12 0 000-17l-21.88-21.88a12 12 0 00-17 0L182.64 557a12 12 0 000 17l21.88 21.88a12 12 0 0016.97-.02zm-42-42l19.2-19.2a12 12 0 000-17l-21.88-21.88a12 12 0 00-17 0L140.67 515a12 12 0 000 17l21.88 21.88a12 12 0 0016.97.01zm39.19-39.28l19.2-19.2a12 12 0 000-17L216 456.56a12 12 0 00-17 0l-19.2 19.2a12 12 0 000 17l21.89 21.88a12 12 0 0017.02-.03zm42 42l19.2-19.2a12 12 0 000-17L258 498.52a12 12 0 00-17 0l-19.2 19.2a12 12 0 000 17l21.88 21.89a12 12 0 0016.99-.03zm39.07-39.07l19.2-19.2a12 12 0 000-17l-21.88-21.88a12 12 0 00-17 0l-19.2 19.2a12 12 0 000 17l21.88 21.88a12 12 0 0016.95-.07zm-42-42l19.2-19.2a12 12 0 000-17L255.1 417.5a12 12 0 00-17 0l-19.2 19.2a12 12 0 000 17l21.89 21.88a12 12 0 0016.99-.04zM224.08 677l19.2-19.2a12 12 0 000-17l-21.89-21.88a12 12 0 00-17 0l-19.2 19.2a12 12 0 000 17L207.11 677a12 12 0 0016.97 0zm42 42l19.2-19.2a12 12 0 000-17l-21.88-21.89a12 12 0 00-17 0l-19.2 19.2a12 12 0 000 17L249.08 719a12 12 0 0016.92-.07zm39.07-39.07l19.2-19.2a12 12 0 000-17l-21.92-21.93a12 12 0 00-17 0L266.26 641a12 12 0 000 17l21.88 21.89a12 12 0 0016.97-.03zm-42-42l19.2-19.2a12 12 0 000-17l-21.88-21.88a12 12 0 00-17 0L224.29 599a12 12 0 000 17l21.88 21.88a12 12 0 0016.97.01zm39.19-39.28l19.2-19.2a12 12 0 000-17l-21.88-21.88a12 12 0 00-17 0l-19.2 19.2a12 12 0 000 17l21.88 21.88a12 12 0 0016.99-.04zm42 42l19.2-19.2a12 12 0 000-17l-21.88-21.89a12 12 0 00-17 0l-19.2 19.2a12 12 0 000 17l21.88 21.89a12 12 0 0016.95-.07zm39.07-39.07l19.2-19.2a12 12 0 000-17l-21.88-21.89a12 12 0 00-17 0l-19.2 19.2a12 12 0 000 17l21.88 21.88a12 12 0 0016.95-.06zm-42-42l19.2-19.2a12 12 0 000-17l-21.89-21.88a12 12 0 00-17 0l-19.2 19.2a12 12 0 000 17l21.89 21.88a12 12 0 0016.99-.04zM308.1 761l19.2-19.2a12 12 0 000-17l-21.88-21.88a12 12 0 00-17 0l-19.2 19.2a12 12 0 000 17L291.13 761a12 12 0 0016.97 0zm42 42l19.2-19.2a12 12 0 000-17l-21.88-21.88a12 12 0 00-17 0l-19.19 19.2a12 12 0 000 17L333.1 803a12 12 0 0016.97 0zm39.07-39.07l19.2-19.2a12 12 0 000-17l-21.89-21.88a12 12 0 00-17 0L350.28 725a12 12 0 000 17l21.89 21.88a12 12 0 0016.97.01zm-42-42l19.2-19.2a12 12 0 000-17l-21.88-21.89a12 12 0 00-17 0l-19.2 19.2a12 12 0 000 17l21.88 21.89a12 12 0 0017 0zm39.19-39.29l19.19-19.2a12 12 0 000-17l-21.88-21.88a12 12 0 00-17 0l-19.2 19.2a12 12 0 000 17l21.88 21.88a12 12 0 0017.01 0zm42 42l19.2-19.2a12 12 0 000-17l-21.88-21.88a12 12 0 00-17 0l-19.2 19.2a12 12 0 000 17l21.88 21.88a12 12 0 0016.96-.03zm39.07-39.07l19.2-19.2a12 12 0 000-17l-21.88-21.88a12 12 0 00-17 0l-19.2 19.2a12 12 0 000 17l21.88 21.88a12 12 0 0016.96-.03zm-42-42l19.2-19.2a12 12 0 000-17l-21.88-21.89a12 12 0 00-17 0l-19.2 19.2a12 12 0 000 17l21.88 21.89a12 12 0 0016.99.01zm-33.37 200.36l19.2-19.2a12 12 0 000-17l-21.89-21.88a12 12 0 00-17 0l-19.2 19.2a12 12 0 000 17l21.89 21.88a12 12 0 0017 0zm42 42l19.2-19.2a12 12 0 000-17l-21.88-21.88a12 12 0 00-17 0l-19.2 19.2a12 12 0 000 17l21.88 21.88a12 12 0 0016.94-.03zm39.07-39.07l19.2-19.2a12 12 0 000-17l-21.88-21.88a12 12 0 00-17 0L434.24 808a12 12 0 000 17l21.88 21.88a12 12 0 0016.97-.05zm-42-42l19.2-19.2a12 12 0 000-17l-21.88-21.89a12 12 0 00-17 0L392.27 766a12 12 0 000 17l21.88 21.89a12 12 0 0016.97-.02zm39.19-39.29l19.2-19.2a12 12 0 000-17l-21.88-21.88a12 12 0 00-17 0l-19.2 19.2a12 12 0 000 17l21.88 21.88a12 12 0 0016.99.01zm42 42l19.2-19.2a12 12 0 000-17l-21.93-21.87a12 12 0 00-17 0l-19.2 19.2a12 12 0 000 17l21.88 21.88a12 12 0 0017-.03zm39.07-39.07l19.2-19.2a12 12 0 000-17l-21.88-21.88a12 12 0 00-17 0l-19.2 19.2a12 12 0 000 17l21.88 21.88a12 12 0 0016.95-.02zm-42-42l19.2-19.2a12 12 0 000-17l-21.89-21.89a12 12 0 00-17 0l-19.2 19.2a12 12 0 000 17l21.89 21.89a12 12 0 0016.99.02zM476.08 928l19.2-19.2a12 12 0 000-17l-21.88-21.88a12 12 0 00-17 0l-19.2 19.2a12 12 0 000 17L459.11 928a12 12 0 0016.97 0zm42 42l19.2-19.19a12 12 0 000-17l-21.88-21.88a12 12 0 00-17 0l-19.2 19.2a12 12 0 000 17l21.88 21.88a12 12 0 0016.97-.08zm39.07-39.06l19.2-19.2a12 12 0 000-17l-21.89-21.89a12 12 0 00-17 0L518.26 892a12 12 0 000 17l21.89 21.89a12 12 0 0016.97-.02zm-42-42l19.2-19.2a12 12 0 000-17l-21.88-21.88a12 12 0 00-17 0l-19.2 19.2a12 12 0 000 17l21.88 21.88a12 12 0 0017-.04zm39.19-39.28l19.2-19.2a12 12 0 000-17l-21.89-21.88a12 12 0 00-17 0l-19.2 19.2a12 12 0 000 17l21.88 21.88a12 12 0 0017.01-.04zm42 42l19.2-19.2a12 12 0 000-17l-21.88-21.88a12 12 0 00-17 0l-19.2 19.2a12 12 0 000 17l21.88 21.89a12 12 0 0016.96-.08zm39.07-39.07l19.2-19.2a12 12 0 000-17l-21.88-21.89a12 12 0 00-17 0l-19.2 19.2a12 12 0 000 17l21.88 21.89a12 12 0 0016.96-.07zm-42-42l19.2-19.2a12 12 0 000-17l-21.89-21.89a12 12 0 00-17 0l-19.2 19.2a12 12 0 000 17l21.88 21.88a12 12 0 0017-.03zm58.17-647.69l19.2-19.2a12 12 0 000-17l-21.89-21.9a12 12 0 00-17 0L612.72 124a12 12 0 000 17l21.88 21.89a12 12 0 0016.97-.03zm42 42l19.2-19.2a12 12 0 000-17l-21.88-21.88a12 12 0 00-17 0L654.68 166a12 12 0 000 17l21.88 21.88a12 12 0 0016.97-.06zm39.07-39.06l19.2-19.2a12 12 0 000-17l-21.93-21.94a12 12 0 00-17 0l-19.2 19.2a12 12 0 000 17l21.88 21.89a12 12 0 0017-.03zm-42-42l19.2-19.2a12 12 0 000-17L688 65.74a12 12 0 00-17 0l-19.2 19.2a12 12 0 000 17l21.89 21.88a12 12 0 0016.95-.03zm39.18-39.28L749 65.31a12 12 0 000-17l-21.86-21.86a12 12 0 00-17 0L691 45.65a12 12 0 000 17l21.88 21.89a12 12 0 0016.94-.03zm42 42l19.2-19.2a12 12 0 000-17L769.1 68.42a12 12 0 00-17 0l-19.2 19.2a12 12 0 000 17l21.89 21.88a12 12 0 0017-.03zM810.9 87.5l19.2-19.2a12.06 12.06 0 000-17l-21.93-21.95a12 12 0 00-17 0L772 48.55a12 12 0 000 17l21.89 21.89a12 12 0 0016.97-.03zm-42-42l19.2-19.2a12 12 0 000-17l-21.89-21.91a12 12 0 00-17 0L730 6.59a12 12 0 000 17l21.88 21.88a12 12 0 0017.01-.03zm-33.3 201.39l19.2-19.2a12 12 0 000-17l-21.89-21.88a12 12 0 00-17 0L696.74 208a12 12 0 000 17l21.88 21.88a12 12 0 0016.98.01zm42 42l19.2-19.2a12 12 0 000-17l-21.92-21.89a12 12 0 00-17 0L738.71 250a12 12 0 000 17l21.88 21.88a12 12 0 0016.97-.02zm39.07-39.07l19.2-19.2a12 12 0 000-17L814 191.74a12 12 0 00-17 0l-19.2 19.2a12 12 0 000 17l21.88 21.88a12 12 0 0016.95-.03zm-42-42l19.2-19.2a12 12 0 000-17L772 149.77a12 12 0 00-17 0L735.81 169a12 12 0 000 17l21.88 21.88a12 12 0 0016.97-.06zm39.19-39.28l19.2-19.2a12 12 0 000-17l-21.88-21.88a12 12 0 00-17 0L775 129.69a12 12 0 000 17l21.89 21.88a12 12 0 0016.96-.03zm42 42l19.2-19.2a12 12 0 000-17l-21.88-21.89a12 12 0 00-17 0L817 171.65a12 12 0 000 17l21.88 21.88a12 12 0 0016.93-.02zm39.07-39.07l19.2-19.2a12 12 0 000-17l-21.93-21.88a12 12 0 00-17 0l-19.2 19.2a12 12 0 000 17l21.88 21.88a12 12 0 0017-.03zm-42-42l19.2-19.2a12 12 0 000-17l-21.9-21.85a12 12 0 00-17 0l-19.2 19.2a12 12 0 000 17L836 129.47a12 12 0 0016.92 0zm-33.38 200.36l19.2-19.2a12 12 0 000-17l-21.88-21.88a12 12 0 00-17 0L780.7 291a12 12 0 000 17l21.88 21.88a12 12 0 0016.97-.05zm42 42l19.2-19.2a12 12 0 000-17l-21.88-21.89a12 12 0 00-17 0l-19.2 19.2a12 12 0 000 17l21.88 21.88a12 12 0 0016.96-.02zm39.07-39.07l19.2-19.2a12 12 0 000-17l-21.92-21.88a12 12 0 00-17 0l-19.2 19.2a12 12 0 000 17l21.88 21.88a12 12 0 0017-.03zm-42-42l19.2-19.2a12 12 0 000-17l-21.89-21.88a12 12 0 00-17 0l-19.2 19.2a12 12 0 000 17l21.89 21.88a12 12 0 0017 0zm39.18-39.28l19.2-19.2a12 12 0 000-17l-21.88-21.88a12 12 0 00-17 0L859 212.63a12 12 0 000 17l21.88 21.88a12 12 0 0016.92-.03zm42 42l19.2-19.2a12 12 0 000-17l-21.92-21.88a12 12 0 00-17 0l-19.2 19.19a12.06 12.06 0 000 17l21.89 21.88a12 12 0 0017-.02zm39.07-39.07l19.2-19.2a12 12 0 000-17l-21.89-21.88a12 12 0 00-17 0L940 215.53a12 12 0 000 17l21.89 21.88a12 12 0 0016.95-.03zm-42-42l19.2-19.2a12 12 0 000-17l-21.88-21.88a12 12 0 00-17 0L898 173.56a12 12 0 000 17l21.88 21.88a12 12 0 0016.99-.03zm-33.29 201.46l19.2-19.2a12 12 0 000-17l-21.89-21.89a12 12 0 00-17 0L864.72 375a12 12 0 000 17l21.89 21.89a12 12 0 0016.97-.02zm42 42l19.2-19.2a12 12 0 000-17l-21.88-21.88a12 12 0 00-17 0L906.69 417a12 12 0 000 17l21.88 21.88a12 12 0 0016.97-.05zm39.07-39.07l19.2-19.2a12 12 0 000-17l-21.88-21.88a12 12 0 00-17 0l-19.2 19.2a12 12 0 000 17l21.88 21.88a12 12 0 0016.96-.04zm-42-42l19.2-19.2a12 12 0 000-17L940 316.75a12 12 0 00-17 0l-19.2 19.19a12 12 0 000 17l21.88 21.88a12 12 0 0016.96-.02zm39.19-39.28l19.2-19.2a12 12 0 000-17l-21.88-21.89a12 12 0 00-17 0L943 296.66a12 12 0 000 17l21.88 21.89a12 12 0 0016.95-.03zm42 42l19.2-19.2a12 12 0 000-17l-21.88-21.88a12 12 0 00-17 0l-19.2 19.2a12 12 0 000 17l21.88 21.88a12 12 0 0016.95-.04zm39.07-39.07l19.2-19.2a12 12 0 000-17l-21.88-21.88a12 12 0 00-17 0l-19.2 19.2a12 12 0 000 17l21.88 21.88a12 12 0 0016.95-.04zm-42-42l19.2-19.2a12 12 0 000-17l-21.89-21.88a12 12 0 00-17 0L982 257.6a12 12 0 000 17l21.89 21.88a12 12 0 0017.01-.03zM314.83-171.61l19.2-19.2a12 12 0 000-17l-21.88-21.88a12 12 0 00-17 0L276-210.46a12 12 0 000 17l21.88 21.88a12 12 0 0016.95-.03zm42 42l19.2-19.2a12 12 0 000-17l-21.92-21.89a12 12 0 00-17 0l-19.2 19.2a12 12 0 000 17l21.88 21.88a12 12 0 0017-.03zm39.07-39.06l19.2-19.2a12 12 0 000-17l-21.88-21.89a12 12 0 00-17 0L357-207.57a12 12 0 000 17l21.88 21.89a12 12 0 0016.98-.03zm-42-42l19.2-19.2a12 12 0 000-17l-21.89-21.88a12 12 0 00-17 0L315-249.53a12 12 0 000 17l21.89 21.88a12 12 0 0017.01-.03zM393.08-250l19.2-19.2a12 12 0 000-17L390.4-308a12 12 0 00-17 0l-19.2 19.2a12 12 0 000 17l21.91 21.8a12 12 0 0016.97 0zm42 42l19.2-19.2a12 12 0 000-17L432.36-266a12 12 0 00-17 0l-19.2 19.2a12 12 0 000 17l21.92 21.8a12 12 0 0016.97 0zm39.07-39.06l19.2-19.2a12 12 0 000-17l-21.89-21.89a12 12 0 00-17 0l-19.2 19.2a12 12 0 000 17l21.88 21.89a12.06 12.06 0 0016.98 0zm-42-42l19.2-19.2a12 12 0 000-17l-21.88-21.88a12 12 0 00-17 0l-19.2 19.2a12 12 0 000 17L415.18-289a12 12 0 0016.97 0zM398.86-87.58l19.19-19.2a12 12 0 000-17l-21.88-21.88a12 12 0 00-17 0L360-126.43a12 12 0 000 17l21.88 21.88a12 12 0 0016.98-.03zm42 42L460-64.81a12 12 0 000-17l-21.88-21.88a12 12 0 00-17 0L402-84.46a12 12 0 000 17l21.88 21.88a12 12 0 0016.94-.03zm39.07-39.07l19.2-19.2a12 12 0 000-17l-21.88-21.88a12 12 0 00-17 0L441-123.53a12 12 0 000 17l21.88 21.88a12 12 0 0017.01-.03zm-42-42l19.2-19.2a12 12 0 000-17l-21.89-21.85a12 12 0 00-17 0l-19.2 19.2a12 12 0 000 17L421-126.65a12 12 0 0016.92 0zm39.19-39.28l19.2-19.2a12 12 0 000-17L474.43-224a12 12 0 00-17 0l-19.2 19.2a12 12 0 000 17l21.89 21.88a12 12 0 0016.99-.01zm42 42l19.2-19.2a12 12 0 000-17L516.39-182a12 12 0 00-17 0l-19.2 19.2a12 12 0 000 17L502.1-124a12 12 0 0016.97 0zM558.14-163l19.2-19.2a12 12 0 000-17l-21.88-21.88a12 12 0 00-17 0l-19.2 19.2a12 12 0 000 17L541.17-163a12 12 0 0016.97 0zm-42-42l19.2-19.2a12 12 0 000-17L513.49-263a12 12 0 00-17 0l-19.2 19.2a12 12 0 000 17l21.92 21.8a12 12 0 0016.97 0zM482.81-4.64L502-23.84a12 12 0 000-17l-21.87-21.85a12 12 0 00-17 0L444-43.49a12 12 0 000 17l21.84 21.85a12 12 0 0016.97 0zm42 42L544 18.13a12 12 0 000-17l-21.91-21.85a12 12 0 00-17 0l-19.2 19.2a12 12 0 000 17l21.91 21.85a12 12 0 0016.97 0zm39.03-39.1L583-20.94a12 12 0 000-17l-21.84-21.85a12 12 0 00-17 0L525-40.59a12 12 0 000 17l21.87 21.85a12 12 0 0016.97 0zm-42-42l19.2-19.2a12 12 0 000-17l-21.89-21.88a12 12 0 00-17 0L483-82.56a12 12 0 000 17l21.89 21.88a12 12 0 0016.99-.03zM561.06-83l19.2-19.2a12 12 0 000-17L558.38-141a12 12 0 00-17 0l-19.2 19.2a12 12 0 000 17L544.09-83a12 12 0 0016.97 0zm42 42l19.2-19.2a12 12 0 000-17l-21.92-21.87a12 12 0 00-17 0l-19.2 19.2a12 12 0 000 17L586.06-41A12 12 0 00603-41zm39.04-39.09l19.2-19.2a12 12 0 000-17l-21.89-21.88a12 12 0 00-17 0l-19.2 19.2a12 12 0 000 17l21.89 21.88a12 12 0 0017 0zm-42-42l19.2-19.19a12 12 0 000-17l-21.88-21.88a12 12 0 00-17 0l-19.2 19.2a12 12 0 000 17l21.88 21.88a12 12 0 0017.03.02zM566.84 79.4L586 60.2a12 12 0 000-17l-21.85-21.86a12 12 0 00-17 0L528 40.54a12 12 0 000 17l21.86 21.86a12.06 12.06 0 0016.98 0zm42 42l19.2-19.2a12 12 0 000-17l-21.92-21.89a12 12 0 00-17 0L570 82.51a12 12 0 000 17l21.88 21.88a12 12 0 0016.92-.03zm39.03-39.1l19.2-19.2a12 12 0 000-17l-21.88-21.86a12 12 0 00-17 0L609 43.44a12 12 0 000 17l21.9 21.86a12 12 0 0016.97 0zm-42-42l19.2-19.2a12 12 0 000-17l-21.85-21.82a12 12 0 00-17 0l-19.2 19.2a12 12 0 000 17l21.88 21.88a12 12 0 0017-.03zm39.22-39.25l19.2-19.2a12 12 0 000-17L642.41-57a12.06 12.06 0 00-17 0l-19.2 19.2a12.06 12.06 0 000 17l21.91 21.85a12 12 0 0016.97 0zm42 42l19.2-19.2a12 12 0 000-17L684.37-15a12 12 0 00-17 0L648.2 4.16a12 12 0 000 17L670.08 43a12 12 0 0016.97 0zM726.12 4l19.2-19.2a12 12 0 000-17l-21.88-21.91a12 12 0 00-17 0l-19.2 19.2a12 12 0 000 17L709.15 4a12 12 0 0016.97 0zm-42-42l19.2-19.2a12 12 0 000-17l-21.85-21.87a12 12 0 00-17 0l-19.2 19.2a12 12 0 000 17L667.19-38a12 12 0 0016.97 0zM-143.9 622.54l19.2-19.2a12 12 0 000-17l-21.88-21.88a12 12 0 00-17 0l-19.2 19.2a12 12 0 000 17l21.88 21.88a12 12 0 0017 0zm42 42l19.2-19.2a12 12 0 000-17l-21.89-21.89a12 12 0 00-17 0l-19.2 19.2a12 12 0 000 17l21.89 21.89a12 12 0 0016.97-.03zm39.06-39.07l19.2-19.2a12 12 0 000-17l-21.88-21.88a12 12 0 00-17 0l-19.2 19.2a12 12 0 000 17l21.88 21.88a12 12 0 0016.97-.03zm-42-42l19.2-19.2a12 12 0 000-17l-21.88-21.88a12 12 0 00-17 0l-19.2 19.2a12 12 0 000 17l21.88 21.88a12 12 0 0017.01 0zm39.18-39.28l19.2-19.2a12 12 0 000-17l-21.88-21.88a12 12 0 00-17 0l-19.2 19.2a12 12 0 000 17l21.88 21.88a12 12 0 0017.01 0zm42 42L-4.48 567a12 12 0 000-17l-21.88-21.9a12 12 0 00-17 0l-19.2 19.2a12 12 0 000 17l21.88 21.89a12 12 0 0017-.03zm39.07-39.07l19.2-19.2a12 12 0 000-17L12.7 489a12 12 0 00-17 0l-19.2 19.2a12 12 0 000 17l21.89 21.88a12 12 0 0017 .01zm-42-42l19.2-19.2a12 12 0 000-17l-21.88-21.88a12 12 0 00-17 0l-19.2 19.2a12 12 0 000 17l21.88 21.88a12 12 0 0017.01 0zm-33.28 201.46l19.2-19.2a12.06 12.06 0 000-17l-21.89-21.88a12 12 0 00-17 0l-19.2 19.2a12 12 0 000 17l21.89 21.89a12 12 0 0017-.01zm42 42l19.2-19.2a12 12 0 000-17l-21.88-21.88a12 12 0 00-17 0l-19.2 19.2a12 12 0 000 17l21.88 21.88a12 12 0 0016.96-.04zm39.07-39.07l19.2-19.2a12 12 0 000-17l-21.92-21.89a12 12 0 00-17 0l-19.2 19.2a12 12 0 000 17l21.91 21.85a12 12 0 0016.97 0zm-42-42l19.2-19.2a12 12 0 000-17l-21.89-21.89a12 12 0 00-17 0l-19.2 19.2a12 12 0 000 17l21.88 21.89a12.06 12.06 0 0017.01 0zm39.18-39.28L37.58 609a12 12 0 000-17L15.7 570.17a12 12 0 00-17 0l-19.2 19.2a12 12 0 000 17l21.91 21.86a12 12 0 0016.97 0zm42 42L79.55 651a12 12 0 000-17l-21.89-21.86a12 12 0 00-17 0l-19.2 19.2a12 12 0 000 17l21.89 21.88a12 12 0 0017-.03zm39.06-39.07l19.2-19.2a12 12 0 000-17l-21.91-21.89a12 12 0 00-17 0l-19.2 19.2a12 12 0 000 17l21.88 21.88a12 12 0 0017-.03zm-42-42L76.65 570a12 12 0 000-17l-21.88-21.9a12.06 12.06 0 00-17 0l-19.2 19.2a12 12 0 000 17l21.89 21.89a12 12 0 0016.99-.03zM24.08 789.52l19.2-19.2a12 12 0 000-17L21.4 731.46a12 12 0 00-17 0l-19.2 19.2a12 12 0 000 17l21.91 21.86a12 12 0 0016.97 0zm42 42l19.2-19.2a12 12 0 000-17l-21.92-21.89a12 12 0 00-17 0l-19.2 19.2a12 12 0 000 17l21.89 21.88a12 12 0 0017-.03zm39.06-39.07l19.2-19.2a12 12 0 000-17l-21.88-21.88a12 12 0 00-17 0l-19.2 19.2a12 12 0 000 17l21.88 21.88a12 12 0 0016.97-.04zm-42-42l19.2-19.2a12 12 0 000-17l-21.87-21.86a12 12 0 00-17 0l-19.2 19.2a12 12 0 000 17l21.88 21.89a12 12 0 0017-.03zm39.18-39.28l19.2-19.2a12 12 0 000-17l-21.87-21.86a12 12 0 00-17 0l-19.2 19.2a12 12 0 000 17l21.88 21.89a12 12 0 0017-.03zm42 42l19.2-19.2a12 12 0 000-17l-21.88-21.88a12 12 0 00-17 0l-19.2 19.2a12 12 0 000 17l21.88 21.88a12 12 0 0016.98-.04zm39.07-39.07l19.2-19.2a12 12 0 000-17L180.68 656a12 12 0 00-17 0l-19.2 19.2a12 12 0 000 17l21.89 21.88a12 12 0 0017-.02zm-42-42l19.2-19.2a12 12 0 000-17L138.72 614a12 12 0 00-17 0l-19.2 19.2a12 12 0 000 17l21.88 21.89a12 12 0 0017 .01zm-33.28 201.45l19.2-19.2a12 12 0 000-17l-21.89-21.85a12 12 0 00-17 0l-19.2 19.2a12 12 0 000 17l21.89 21.88a12 12 0 0017-.03zm42 42l19.2-19.2a12 12 0 000-17l-21.88-21.89a12 12 0 00-17 0l-19.2 19.2a12 12 0 000 17l21.88 21.89a12 12 0 0016.96-.03zm39.07-39.07l19.2-19.2a12 12 0 000-17l-21.88-21.89a12 12 0 00-17 0l-19.2 19.2a12 12 0 000 17l21.88 21.89a12 12 0 0016.96-.03zm-42-42l19.2-19.2a12 12 0 000-17l-21.89-21.88a12 12 0 00-17 0l-19.2 19.2a12 12 0 000 17l21.88 21.88a12 12 0 0017.01 0zm39.18-39.28l19.2-19.2a12 12 0 000-17l-21.88-21.88a12 12 0 00-17 0l-19.2 19.2a12 12 0 000 17l21.88 21.88a12 12 0 0017 0zm42 42l19.2-19.2a12 12 0 000-17l-21.89-21.89a12 12 0 00-17 0l-19.2 19.2a12 12 0 000 17l21.89 21.89a12 12 0 0016.97-.03zm39.06-39.07l19.2-19.2a12 12 0 000-17L264.71 740a12 12 0 00-17 0l-19.2 19.2a12 12 0 000 17l21.88 21.88a12 12 0 0017 .02zm-42-42l19.2-19.2a12 12 0 000-17l-21.88-21.88a12 12 0 00-17 0l-19.19 19.2a12 12 0 000 17l21.88 21.88a12 12 0 0017 0zm493.73 98l19.2-19.2a12 12 0 000-17l-21.88-21.88a12 12 0 00-17 0l-19.2 19.2a12 12 0 000 17l21.88 21.88a12 12 0 0017.01-.02zm42 42l19.2-19.2a12 12 0 000-17L758.45 838a12 12 0 00-17 0l-19.2 19.2a12 12 0 000 17l21.88 21.89a12 12 0 0017-.01zM800.2 857l19.2-19.2a12 12 0 000-17L797.52 799a12.06 12.06 0 00-17 0l-19.2 19.2a12.06 12.06 0 000 17l21.91 21.8a12 12 0 0016.97 0zm-42-42l19.2-19.2a12 12 0 000-17L755.55 757a12 12 0 00-17 0l-19.2 19.2a12 12 0 000 17l21.91 21.8a12 12 0 0016.97 0zm39.19-39.28l19.2-19.2a12 12 0 000-17l-21.89-21.88a12 12 0 00-17 0l-19.2 19.2a12 12 0 000 17l21.89 21.88a12 12 0 0017.03.04zm42 42l19.2-19.2a12 12 0 000-17l-21.89-21.85a12 12 0 00-17 0l-19.2 19.2a12 12 0 000 17l21.88 21.89a12 12 0 0017-.03zm39.07-39.07l19.2-19.2a12 12 0 000-17l-21.88-21.88a12 12 0 00-17 0l-19.2 19.2a12 12 0 000 17l21.88 21.88a12 12 0 0016.99.01zm-42-42l19.2-19.2a12 12 0 000-17l-21.86-21.81a12 12 0 00-17 0l-19.2 19.2a12 12 0 000 17l21.88 21.88a12 12 0 0017-.03zm-33.27 201.49l19.2-19.2a12 12 0 000-17l-21.88-21.88a12 12 0 00-17 0l-19.2 19.2a12 12 0 000 17l21.88 21.88a12 12 0 0017 0zm42 42l19.2-19.2a12 12 0 000-17l-21.89-21.88a12 12 0 00-17 0l-19.2 19.2a12 12 0 000 17l21.89 21.88a12 12 0 0016.97-.03zM884.22 941l19.2-19.2a12 12 0 000-17L881.54 883a12 12 0 00-17 0l-19.2 19.2a12 12 0 000 17l21.91 21.8a12 12 0 0016.97 0zm-42-42l19.2-19.2a12 12 0 000-17L839.58 841a12 12 0 00-17 0l-19.2 19.2a12 12 0 000 17l21.88 21.89a12 12 0 0017-.01zm39.18-39.28l19.2-19.2a12 12 0 000-17l-21.88-21.88a12 12 0 00-17 0l-19.2 19.2a12 12 0 000 17l21.88 21.89a12 12 0 0017.04.07zm42 42l19.2-19.2a12 12 0 000-17l-21.88-21.88a12 12 0 00-17 0l-19.2 19.2a12 12 0 000 17l21.88 21.88a12 12 0 0017.01.04zm39.07-39.07l19.2-19.2a12 12 0 000-17l-21.89-21.88a12 12 0 00-17 0l-19.2 19.2a12 12 0 000 17l21.89 21.88a12 12 0 0017.01.04zm-42-42l19.2-19.2a12 12 0 000-17l-21.88-21.89a12 12 0 00-17 0l-19.2 19.2a12 12 0 000 17l21.88 21.89a12 12 0 0017.04.08zM887.1 1021l19.2-19.19a12 12 0 000-17L884.46 963a12 12 0 00-17 0l-19.2 19.2a12 12 0 000 17l21.88 21.88a12 12 0 0017 0zm42 42l19.2-19.2a12 12 0 000-17l-21.87-21.8a12 12 0 00-17 0l-19.2 19.2a12 12 0 000 17l21.88 21.88a12 12 0 0017-.03zm39.08-39l19.2-19.2a12 12 0 000-17l-21.88-21.87a12 12 0 00-17 0l-19.2 19.2a12 12 0 000 17l21.91 21.87a12 12 0 0016.97 0zm-42-42l19.2-19.2a12 12 0 000-17L923.53 924a12 12 0 00-17 0l-19.2 19.2a12 12 0 000 17l21.91 21.8a12 12 0 0016.97 0zm39.19-39.28l19.2-19.2a12.06 12.06 0 000-17l-21.89-21.88a12 12 0 00-17 0l-19.2 19.2a12 12 0 000 17l21.89 21.89a12 12 0 0017.03.01zm42 42l19.2-19.2a12 12 0 000-17l-21.88-21.88a12 12 0 00-17 0l-19.2 19.2a12 12 0 000 17l21.88 21.88a12 12 0 0016.99-.02zm39.07-39.07l19.2-19.2a12 12 0 000-17l-21.88-21.88a12 12 0 00-17 0l-19.2 19.2a12 12 0 000 17l21.88 21.88a12 12 0 0016.99-.02zm-42-42l19.2-19.2a12 12 0 000-17l-21.88-21.89a12 12 0 00-17 0l-19.2 19.2a12 12 0 000 17l21.88 21.89a12 12 0 0017.02.02zm-33.29 201.45l19.2-19.2a12 12 0 000-17l-21.88-21.88a12 12 0 00-17 0l-19.2 19.2a12 12 0 000 17l21.88 21.88a12 12 0 0017.02.02zm42 42l19.2-19.2a12.06 12.06 0 000-17l-21.9-21.9a12 12 0 00-17 0l-19.2 19.2a12 12 0 000 17l21.89 21.89a12 12 0 0017 0zm39.05-39.1l19.2-19.2a12 12 0 000-17l-21.88-21.8a12 12 0 00-17 0l-19.2 19.2a12 12 0 000 17l21.88 21.89a12 12 0 0017-.09zm-42-42l19.2-19.2a12 12 0 000-17l-21.84-21.8a12 12 0 00-17 0l-19.2 19.2a12 12 0 000 17l21.88 21.88a12 12 0 0017-.03zm39.18-39.28l19.2-19.2a12 12 0 000-17l-21.88-21.88a12 12 0 00-17 0l-19.2 19.2a12 12 0 000 17l21.88 21.88a12 12 0 0017.04.05zm42 42l19.2-19.2a12 12 0 000-17l-21.88-21.89a12 12 0 00-17 0l-19.2 19.2a12 12 0 000 17l21.88 21.89a12 12 0 0017.01.02zm39.07-39.07l19.2-19.2a12 12 0 000-17l-21.89-21.89a12 12 0 00-17 0l-19.2 19.2a12 12 0 000 17l21.89 21.89a12 12 0 0017.01.02zm-42-42l19.2-19.2a12 12 0 000-17l-21.88-21.88a12 12 0 00-17 0l-19.2 19.2a12 12 0 000 17l21.88 21.88a12 12 0 0017.04.05zm-170.7-248.04l19.2-19.2a12 12 0 000-17l-21.88-21.88a12 12 0 00-17 0l-19.2 19.2a12 12 0 000 17l21.88 21.88a12 12 0 0017 0zm42 42l19.2-19.2a12 12 0 000-17L957 723.52a12 12 0 00-17 0l-19.2 19.2a12 12 0 000 17l21.89 21.89a12 12 0 0017.03-.03zm39.07-39.07l19.2-19.2a12 12 0 000-17l-21.92-21.88a12 12 0 00-17 0l-19.2 19.19a12.06 12.06 0 000 17l21.88 21.88a12 12 0 0017.01-.02zm-42-42l19.2-19.2a12 12 0 000-17l-21.88-21.88a12 12 0 00-17 0L918 661.69a12 12 0 000 17l21.88 21.88a12 12 0 0016.94-.03zM996 661.26l19.2-19.2a12 12 0 000-17l-21.88-21.88a12 12 0 00-17 0l-19.2 19.2a12 12 0 000 17L979 661.26a12 12 0 0017 0zm42 42l19.2-19.2a12 12 0 000-17l-21.88-21.89a12 12 0 00-17 0l-19.2 19.2a12 12 0 000 17l21.88 21.86a12 12 0 0017 0zm39-39.1l19.2-19.2a12 12 0 000-17l-21.88-21.88a12 12 0 00-17 0l-19.2 19.2a12 12 0 000 17l21.89 21.88a12 12 0 0016.99 0zm-42-42l19.2-19.2a12 12 0 000-17l-21.88-21.88a12 12 0 00-17 0l-19.2 19.2a12 12 0 000 17l21.88 21.88a12 12 0 0017.07.03zm-33.29 201.45l19.2-19.19a12.06 12.06 0 000-17l-21.81-21.83a12 12 0 00-17 0l-19.2 19.2a12 12 0 000 17l21.89 21.88a12 12 0 0016.99-.03zm42 42l19.2-19.2a12 12 0 000-17l-21.88-21.88a12 12 0 00-17 0l-19.2 19.2a12 12 0 000 17l21.88 21.88a12 12 0 0017.03 0zm39.07-39.07l19.2-19.2a12 12 0 000-17l-21.88-21.88a12 12 0 00-17 0l-19.2 19.2a12 12 0 000 17l21.88 21.88a12 12 0 0017.03 0zm-42-42l19.2-19.2a12 12 0 000-17l-21.89-21.89a12 12 0 00-17 0l-19.2 19.2a12 12 0 000 17l21.89 21.89a12 12 0 0017.07.04zM1080 745.3l19.2-19.2a12 12 0 000-17l-21.88-21.88a12 12 0 00-17 0l-19.2 19.2a12 12 0 000 17l21.88 21.89a12 12 0 0017-.01zm42 42l19.2-19.2a12 12 0 000-17l-21.89-21.88a12 12 0 00-17 0l-19.2 19.2a12 12 0 000 17l21.89 21.84a12 12 0 0017 0zm39.06-39.07l19.2-19.2a12 12 0 000-17l-21.88-21.88a12 12 0 00-17 0l-19.2 19.2a12 12 0 000 17l21.88 21.88a12 12 0 0017-.04zm-42-42l19.2-19.2a12 12 0 000-17l-21.88-21.89a12 12 0 00-17 0l-19.2 19.2a12 12 0 000 17l21.88 21.89a12 12 0 0017.04 0zm-33.37 200.36l19.2-19.2a12 12 0 000-17l-21.88-21.88a12 12 0 00-17 0l-19.2 19.2a12 12 0 000 17l21.88 21.89a12 12 0 0017.04-.01zm42 42l19.2-19.2a12 12 0 000-17L1125 890.5a12 12 0 00-17 0l-19.2 19.2a12 12 0 000 17l21.89 21.88a12 12 0 0017.01-.03zm39.07-39.07l19.2-19.2a12 12 0 000-17l-21.89-21.88a12 12 0 00-17 0l-19.2 19.2a12 12 0 000 17l21.89 21.88a12 12 0 0017.01-.04zm-42-42l19.2-19.2a12 12 0 000-17l-21.88-21.89a12 12 0 00-17 0l-19.2 19.2a12 12 0 000 17l21.88 21.89a12 12 0 0017.04 0zm39.24-39.28l19.2-19.2a12 12 0 000-17l-21.88-21.88a12 12 0 00-17 0l-19.2 19.2a12 12 0 000 17l21.88 21.88a12 12 0 0017 0zm42 42l19.2-19.2a12 12 0 000-17l-21.88-21.88a12 12 0 00-17 0l-19.2 19.2a12 12 0 000 17L1189 870.2a12 12 0 0017 0zm39-39.11l19.2-19.2a12 12 0 000-17l-21.88-21.88a12 12 0 00-17 0l-19.2 19.2a12 12 0 000 17l21.88 21.88a12 12 0 0017 0zm-42-42l19.2-19.2a12 12 0 000-17l-21.88-21.89a12 12 0 00-17 0l-19.2 19.2a12 12 0 000 17l21.88 21.89a12 12 0 0017.05.04zm-33.29 201.45l19.2-19.2a12 12 0 000-17l-21.88-21.88a12 12 0 00-17 0l-19.19 19.2a12 12 0 000 17l21.88 21.88a12 12 0 0017.04.04zm42 42l19.2-19.2a12 12 0 000-17L1209 974.53a12 12 0 00-17 0l-19.2 19.2a12 12 0 000 17l21.88 21.89a12 12 0 0017.04-.03zm39.07-39.07l19.2-19.2a12 12 0 000-17l-21.88-21.89a12 12 0 00-17 0l-19.2 19.2a12 12 0 000 17l21.88 21.89a12 12 0 0017.01.01zm-42-42l19.2-19.2a12 12 0 000-17l-21.89-21.88a12 12 0 00-17 0L1170 912.7a12 12 0 000 17l21.89 21.88a12 12 0 0016.94-.03zm39.22-39.24l19.2-19.2a12 12 0 000-17l-21.88-21.88a12 12 0 00-17 0l-19.2 19.2a12 12 0 000 17l21.88 21.88a12 12 0 0017 0zm42 42l19.2-19.2a12 12 0 000-17l-21.89-21.89a12 12 0 00-17 0l-19.2 19.2a12 12 0 000 17l21.89 21.86a12 12 0 0017 0zm39.07-39.07l19.2-19.2a12 12 0 000-17l-21.89-21.89a12 12 0 00-17 0l-19.2 19.2a12 12 0 000 17l21.88 21.89a12.06 12.06 0 0016.99-.03zm-42-42l19.2-19.2a12 12 0 000-17l-21.88-21.88a12 12 0 00-17 0l-19.2 19.2a12 12 0 000 17l21.88 21.88a12 12 0 0017.01 0zM3.26 143l19.2-19.2a12 12 0 000-17L.58 85a12 12 0 00-17 0l-19.2 19.2a12 12 0 000 17l21.91 21.8a12 12 0 0016.97 0zm39.07-39.06l19.2-19.2a12 12 0 000-17L39.65 45.88a12 12 0 00-17 0L3.48 65.08a12 12 0 000 17l21.88 21.89a12 12 0 0016.97-.03zm39.18-39.29l19.2-19.2a12 12 0 000-17L78.83 6.6a12 12 0 00-17 0L42.66 25.8a12 12 0 000 17l21.88 21.85a12 12 0 0016.97 0zm39.07-39.06l19.2-19.2a12 12 0 000-17L117.9-32.47a12 12 0 00-17 0l-19.2 19.2a12 12 0 000 17l21.88 21.89a12 12 0 0017-.03zM-39.12 103l19.2-19.2a12 12 0 000-17L-41.8 45a12 12 0 00-17 0L-78 64.18a12 12 0 000 17L-56.09 103a12 12 0 0016.97 0zM0 64l19.2-19.2a12 12 0 000-17L-2.73 5.92a12 12 0 00-17 0l-19.2 19.2a12 12 0 000 17L-17 64a12 12 0 0017 0zm39.13-39.31l19.2-19.2a12 12 0 000-17L36.45-33.36a12 12 0 00-17 0L.28-14.16a12 12 0 000 17l21.88 21.85a12 12 0 0016.97 0zM78.2-14.38l19.2-19.2a12 12 0 000-17L75.52-72.43a12 12 0 00-17 0l-19.2 19.2a12 12 0 000 17l21.91 21.85a12 12 0 0016.97 0zm769.94 61.71l19.2-19.2a12 12 0 000-17l-21.88-21.85a12 12 0 00-17 0l-19.2 19.2a12 12 0 000 17l21.88 21.88a12 12 0 0017-.03zm39.07-39.07l19.2-19.2a12 12 0 000-17l-21.88-21.85a12 12 0 00-17 0l-19.2 19.2a12 12 0 000 17l21.91 21.85a12 12 0 0016.97 0zM926.4-31l19.2-19.2a12 12 0 000-17l-21.89-21.87a12 12 0 00-17 0l-19.2 19.2a12 12 0 000 17L909.43-31a12 12 0 0016.97 0zm39.06-39.07l19.2-19.2a12 12 0 000-17l-21.88-21.88a12 12 0 00-17 0l-19.2 19.2a12 12 0 000 17l21.88 21.88a12 12 0 0017-.02zM890.7 89.22L909.9 70a12 12 0 000-17L888 31.17a12 12 0 00-17 0l-19.2 19.2a12 12 0 000 17l21.88 21.88a12 12 0 0017.02-.03zm39.07-39.07L949 31a12 12 0 000-17L927.09-7.9a12 12 0 00-17 0l-19.2 19.2a12 12 0 000 17l21.91 21.85a12 12 0 0016.97 0zM969 10.87l19.2-19.2a12 12 0 000-17l-21.93-21.85a12 12 0 00-17 0L930.1-28a12 12 0 000 17L952 10.87a12 12 0 0017 0zm39-39.07l19.2-19.2a12 12 0 000-17l-21.88-21.88a12 12 0 00-17 0L969.17-67a12 12 0 000 17l21.88 21.8a12 12 0 0016.95 0zm-74.26 158.36l19.2-19.2a12 12 0 000-17l-21.88-21.85a12 12 0 00-17 0l-19.2 19.2a12 12 0 000 17l21.88 21.88a12 12 0 0017-.03zm39.07-39.07L992 71.89a12 12 0 000-17L970.13 33a12 12 0 00-17 0L934 52.24a12 12 0 000 17l21.88 21.88a12 12 0 0016.93-.03zM202.36 29.94l19.2-19.2a12 12 0 000-17l-21.88-21.85a12 12 0 00-17 0l-19.2 19.2a12 12 0 000 17l21.88 21.88a12 12 0 0017-.03zm39.07-39.07l19.2-19.2a12 12 0 000-17l-21.88-21.85a12 12 0 00-17 0L202.58-48a12 12 0 000 17l21.88 21.87a12 12 0 0016.97 0zm28.07 887.36L288.7 859a12 12 0 000-17l-21.89-21.89a12 12 0 00-17 0l-19.2 19.2a12 12 0 000 17l21.89 21.89a12 12 0 0017 .03zm39.06-39.07l19.2-19.2a12 12 0 000-17l-21.88-21.88a12 12 0 00-17 0l-19.2 19.2a12 12 0 000 17l21.88 21.88a12 12 0 0017 0z" fill="#939393"/><path d="M545.4 298.43C472.32 321 472 336.86 413.6 348.15c-44.65 8.64-65 3.31-79.35-4.85a83.57 83.57 0 01-28.52-27.46c-2.55-11.49-4.36-28.74 2.66-46.44 12.91-32.54 47.71-46.43 87.79-61.78 53.08-20.34 53.52-8.17 105.35-27.66 47-17.67 64.67-34.46 92.87-28.4 20.52 4.4 34.7 18.35 43.37 29.2a68.91 68.91 0 016 31.33c-1.53 29.91-22.61 50-28.77 55.91-19.1 18.11-36.5 20.23-69.6 30.43z" fill="#1a1a1a"/><path d="M789 141c-9.55.6-17.13-2-32-7.13-13.72-4.72-15.26-6.82-24.5-8.76a88.45 88.45 0 00-23.5-1.26c-19.1 1.82-51.66 35.5-74.74 92.94a12.16 12.16 0 01-10.37-1.38 16.24 16.24 0 01-6.78-9.49l-6.33-22.84a18.11 18.11 0 01.81-12.06 15.31 15.31 0 017.89-7.58c11.63-5.54 22.95-30 30.63-41.21 17-24.84 50.15-34.35 73.41-32.39 25.8 2.17 28.37 15.72 55.18 13.68 15.09-1.16 29.27-6.8 35.87 2.09a23.11 23.11 0 013.79 14.91 21.33 21.33 0 01-4.9 11.91C803.32 139 794.63 140.65 789 141zM403.16 260.87a137.07 137.07 0 005 14.56c-29.88 13.11-41.7 12.83-45.13 7.4s.51-18.45-4.13-21.26a4.37 4.37 0 00-3.86-.06A46.69 46.69 0 01334 250.57c-7.46-6.83-11.91-15.43-21.29-20.2a56.51 56.51 0 00-8.17-3.42c-4.11-1.26-5.65-1.06-10.13-2.48a43.88 43.88 0 01-7.38-3c-4.38-2.29-10.13-5.3-10.37-9.5-.05-.91.11-2.69 2.2-4.91a6.21 6.21 0 01-2.14-7.85 4.3 4.3 0 016.32-1.46 5.47 5.47 0 01-1.33-6.57 3.78 3.78 0 015.75-1.32c.48-2 1.42-4.5 3.3-5.14 2.63-.9 5.6 2.42 8.68 5.46 4.58 4.52 10.06 7.66 14.71 12.06s9.17 6.68 48.51 21.07c6 2.2 11.11 4 15 5.44l20.95 8.36a142.46 142.46 0 004.55 23.76zm-90.99 119.99l-17.86 6.06c-22.3 7.57-46.13-6.43-53-31.11l-11.08-40c-6.83-24.68 5.81-51.06 28.11-58.62l17.86-6.07c22.29-7.56 46.12 6.44 53 31.12l11.07 40c6.84 24.68-5.81 51.06-28.1 58.62z" fill="#1a1a1a"/><path d="M242.35 297.43l-10.93 8a24.18 24.18 0 01-8.58-6.48c-3.72-4.43-5.18-9.3-6.7-14.35a100.79 100.79 0 01-2.43-11.25c-1.06-5.8-1.78-10.64-2.24-14.05a40.18 40.18 0 0119.26-3.79 45.08 45.08 0 0122.3 6.34l-2 16c2.34 8.33-1.57 17.15-8.68 19.58zm29.35 71.72l6.72 13.38a25.51 25.51 0 01-5.62 9.47c-3.82 4-8 5.31-12.35 6.67a61.81 61.81 0 01-9.64 1.94c-5 .77-9.13 1.22-12.06 1.48a63.14 63.14 0 01-2.05-8.05 67 67 0 01-1-14.72 71.69 71.69 0 011.27-12 62 62 0 014.34-13.52l13.69 3.62c7.15-2.04 14.69 3.24 16.7 11.73zm145.06-61.44q-.66-8.4-1.33-16.79c-35.53-2.63-47.2 1.95-48.27 8.78-1.09 7 8.54 18.78 5.13 23.35a4.43 4.43 0 01-3.83 1.46 46 46 0 00-16.27 18.9c-4.48 9.73-5.16 20.18-12.45 28.49a56.22 56.22 0 01-6.67 6.49c-3.56 2.78-5.18 3.13-9 6.22a43 43 0 00-6.06 5.78c-3.37 3.94-7.8 9.12-6.21 13.53.35.95 1.28 2.72 4.33 4.24-1.9 2.6-1.15 6.77 1.29 8.84a4.56 4.56 0 006.94-.78 6.19 6.19 0 001.53 7.23c2.11 1.83 5 1.53 6.32-.73 1.34 1.84 3.38 4.11 5.54 4.09 3 0 4.53-4.52 6.28-8.77 2.61-6.3 6.7-11.52 9.43-17.74 3.2-7.28 12.5-19.15 39.25-39.26l20.91-18.34a67.46 67.46 0 004-20 76.21 76.21 0 00-.86-14.99z" fill="#1a1a1a"/><ellipse cx="566.31" cy="178.9" rx="59.57" ry="30.44" fill="#1a1a1a"/><ellipse cx="597.61" cy="240.29" rx="63.96" ry="34.51" transform="rotate(-59.3 596.86 240.49)" fill="#1a1a1a"/><path d="M572.32 306.25c-2.11 7.9-10.61 14.32-15.9 12.14a7.33 7.33 0 01-3.38-3.22 7 7 0 01-6.59-1.17 7.78 7.78 0 01-2.66-5.26 9.22 9.22 0 01-4.89-3.74c-2.38-3.88-.62-8.58 0-10.27 2.43-6.47 10.92-15.21 21.57-11.54 9.93 3.42 14.03 14.93 11.85 23.06zm-75.18-118.51c-6.66 1.72-15.1-2.54-15.87-7.92a7.21 7.21 0 01.82-4.24 7.44 7.44 0 01-2.08-6 6.7 6.7 0 012.63-4.54 9.32 9.32 0 01.53-5.73c1.75-3.71 5.94-4.31 7.44-4.52 5.77-.83 15.89 2.4 18 12.91 1.9 9.77-4.61 18.3-11.47 20.04z" fill="#1a1a1a"/><path d="M541.06 169.32c-.19 6.5-11.64 11.09-20.29 11-9.47 0-20.38-5.68-20.29-11s10.85-10.24 25.94-13c8.48 2.84 14.79 8.09 14.64 13z" fill="#1a1a1a"/><path fill="#6b4328" d="M-6.88-20.77H35.5v826.22H-6.88zm885.53-2.22h42.38v826.22h-42.38z"/><path fill="#6b4328" d="M-17.93-20.77h991.06v53.81H-17.93zm0 763.48h980.05v88.06H-17.93z"/><ellipse cx="171.79" cy="619.83" rx="19.12" ry="25.94" transform="rotate(-45.24 171.759 619.786)" fill="#95d66b"/><ellipse cx="208.8" cy="620.88" rx="25.09" ry="12.29" transform="rotate(-53.46 208.846 620.92)" fill="#95d66b"/><ellipse cx="192.4" cy="654.58" rx="11.85" ry="26.02" transform="rotate(-7.19 192.343 654.462)" fill="#95d66b"/><ellipse cx="215.76" cy="642.29" rx="18.59" ry="9.36" transform="rotate(-17.86 215.7 642.158)" fill="#95d66b"/><ellipse cx="171.79" cy="651.97" rx="7.22" ry="15.05" transform="rotate(-76.2 171.773 651.959)" fill="#95d66b"/><path d="M226.07 740.91h-71.62q-7.86-44.53-15.73-89.06H246q-10 44.52-19.93 89.06z" fill="#c1c693"/><circle cx="184.24" cy="190.55" r="2.05"/><circle cx="153.18" cy="190.55" r="2.05"/><circle cx="211.47" cy="194.64" r="2.05"/><circle cx="238.76" cy="201.76" r="2.05"/><circle cx="264.62" cy="188.5" r="2.05"/><circle cx="287.82" cy="172.69" r="2.05"/><circle cx="308.53" cy="158.24" r="2.05"/><circle cx="330.24" cy="158.55" r="2.05"/><circle cx="350.13" cy="151.67" r="2.05"/><circle cx="361.72" cy="133.96" r="2.05"/><circle cx="371.19" cy="111.65" r="2.05"/><circle cx="386.47" cy="96.43" r="2.05"/><circle cx="410.97" cy="92.33" r="2.05"/><circle cx="426.33" cy="74.96" r="2.05"/><circle cx="433.65" cy="53.46" r="2.05"/><circle cx="436.55" cy="33.04" r="2.05"/><ellipse cx="123.23" cy="190.68" rx="9.3" ry="8" transform="rotate(-6.33 123.148 190.657)"/><ellipse cx="117.17" cy="179.2" rx="5.37" ry="6.95" transform="rotate(-45.21 117.152 179.186)" fill="none" stroke="#000" stroke-miterlimit="10"/><ellipse cx="117.12" cy="201.74" rx="8.23" ry="5.31" transform="rotate(-64.62 117.13 201.748)" fill="none" stroke="#000" stroke-miterlimit="10"/><ellipse cx="114.41" cy="189.61" rx="4.78" ry="5.16"/><ellipse cx="129.42" cy="201.4" rx="6.11" ry="8.34" transform="rotate(-10.21 129.472 201.46)" fill="none" stroke="#000" stroke-miterlimit="10"/><ellipse cx="130.31" cy="179.37" rx="8.24" ry="6.19" transform="rotate(-66.87 130.329 179.383)" fill="none" stroke="#000" stroke-miterlimit="10"/></svg>