<svg xmlns="http://www.w3.org/2000/svg" viewBox="0 0 646.94 756.74"><path d="M269.31 18.84a44.05 44.05 0 00-18.43-9.17c-2-.45-21.94-4.61-35.72 7.86-12.88 11.66-11.73 30.07-11.42 35 1.82 29.29 32.62 56.5 76.29 71.2a108.93 108.93 0 0038-28.34c7.53-8.83 31.77-37.27 22.5-65.72-3.72-11.44-13.82-25.8-29-29-10.42-2.2-19.71 1.63-22.88 2.93a45.82 45.82 0 00-19.34 15.24zm-116.8 93.83a30.21 30.21 0 00-14-2.54c-1.41.09-15.4 1.19-22.06 12.17-6.23 10.27-1.87 22.3-.71 25.52 6.94 19.16 32.61 31.3 64.34 32.6a75.08 75.08 0 0019.56-26.25c3.24-7.33 13.7-31 2-48.12-4.7-6.89-14.19-14.5-24.82-13.69-7.31.56-12.7 4.91-14.54 6.4a31.63 31.63 0 00-9.77 13.91zm259.05-29.69a30.22 30.22 0 00-8.25-11.57c-1.06-.91-11.86-9.88-24.29-6.66-11.62 3-16.89 14.68-18.3 17.8-8.39 18.57 1.55 45.17 23.38 68.23a75 75 0 0032.29-5.17c7.44-3 31.42-12.65 35-33.09 1.43-8.22-.06-20.28-8.24-27.12-5.64-4.7-12.54-5.34-14.89-5.56a31.6 31.6 0 00-16.7 3.14z" fill="#c77c89"/><path d="M497 755.59c25.55-13.62 37.66-29.44 43.84-39.91 35.16-59.67-.5-152.91 2-251.1.21-8.29.94-26.28 13.35-39.7 18.54-20 50.17-15.86 53.08-15.44 8.21 1.2 22.5 3.3 31.22 15.44 1.14 1.59 8.28 11.86 6 25.08-1.8 10.37-8.37 16.58-14 21.85-4.38 4.13-8 7.58-14 8.71-8.87 1.7-16.25-3.05-18.45-4.59a37.87 37.87 0 005.5-2.7 34.27 34.27 0 008.25-6.62c2.52-2.83 6.4-7.2 6.63-13.47.3-7.93-5.44-13.42-6.58-14.47a28.57 28.57 0 00-30.12 1c-10.74 7.48-11.64 20-11.73 21.57a209.16 209.16 0 00-3.99 59.74c1.77 22.37 6.26 31.68 14.14 63.1 11.54 46 17.48 69 15.77 95.29-2.15 32.92-14.45 59.12-24.58 76.2zm-334.84 0a355.94 355.94 0 0122.75-272.33l241.33-11.45a332.62 332.62 0 0144.89 114.6c14.4 76.39-1.84 138.79-12 169.18" fill="#2c292a"/><path d="M229.26 755.59c-15.07-36.1-36.62-102.79-26.48-184.83a350.87 350.87 0 0120.79-82.87l169.33 1.85a310.32 310.32 0 01-.46 267" fill="#fff"/><path d="M511.77 290.6c2.58-2.05-1-8.73-2.22-22.65-2.11-24.1 5.58-41.83 8.84-51.66 5.93-17.86 10-47.23.08-97.15l-16.79-6.59a96.83 96.83 0 00-15.91 5.9c-45.55 21.61-61.63 73.1-66.6 92.43 68.22 70.79 88.15 83.24 92.6 79.72zm-397.49 54.16a188.8 188.8 0 00-4.67-27.84c-10.61-43.14-30.78-58.06-40.1-97.19a155.84 155.84 0 01-4.12-40.75 176.17 176.17 0 0151 10.88c39.25 14.75 63.67 40.12 75.45 54.37z" fill="#2c292a"/><path d="M532.62 370.98c-11.1 58.4-78.75 92.09-97.19 101.27-34.24 17.06-63.78 20.45-89 23.12-41.37 4.37-174.79 19-220.78-56.24-23.76-38.87-15.21-81.76-13.75-88.54 22.49-104.92 190.25-192.61 309.26-140.74 60.76 26.49 123.84 95.91 111.46 161.13z" fill="#2c292a"/><path d="M184.91 483.26c15.24-8.78 57.5-35.27 78.8-79.86 11.27-23.61 14.54-43.14 14.54-43.14 2.5-15 4.25-40.53 4.79-48.48 1-14.67 1.33-24.53 8.75-32.64a32.81 32.81 0 0115.45-9.16c2.09 5.58 5.21 13.7 9.18 23.43 0 0 10.51 25.72 21 47.47 23.78 49.27 35.71 74 60.38 91.27 11.18 7.81 34.09 20.45 72.53 20a313.3 313.3 0 01-54.84 28.66c-16.71 6.7-97.7 37.5-195.43 13.33a312.64 312.64 0 01-35.15-10.88z" fill="#f8f8f9"/><path d="M311.81 424.88v-7.52a59.38 59.38 0 01-14.52-19.69 34.89 34.89 0 0133-5.26 23.75 23.75 0 01-2 15.11 23.12 23.12 0 01-6.8 8l4.11 7.7z" fill="#dabec1"/><path d="M260.89 431.92a65.87 65.87 0 0029.24 8.45 29.87 29.87 0 009.42-1.52 35.85 35.85 0 008.17-4.19 62.29 62.29 0 008.91-6.86 61.77 61.77 0 0029.46 7.31 34.9 34.9 0 007.91-2.13 41 41 0 006.95-3.77c3.24-2.07 7.26-4.67 11.87-7.77a42.41 42.41 0 00-5.71.91c-10.38 2.43-11.93 7.12-20 8.41a24.81 24.81 0 01-13.57-1.78 24.45 24.45 0 01-7.94-5.68 47.4 47.4 0 00-5.08.19 57 57 0 00-8.7 1.42 37.21 37.21 0 01-15.37 8.79 40.1 40.1 0 01-16.6 1c-3.26-.54-5.32-1.34-10.73-2.06a81.88 81.88 0 00-8.23-.72zm-202.5-10.51c0 .29 24.19-5.51 59.25-6.74 25.1-.88 41.59 1.07 51 2.5a248.36 248.36 0 0129.67 6.4l12.38-4.19a307.39 307.39 0 00-80-8.51c-41.12 1.05-72.4 10.21-72.3 10.54zm-16.24 34.26c.1.28 22.94-9.44 57.31-16.47 24.61-5 41.19-5.83 50.68-6a249.52 249.52 0 0130.31 1.39q5.76-3.09 11.51-6.19a307.11 307.11 0 00-80.29 4.88c-40.28 7.84-69.67 22.06-69.52 22.39z" fill="#4a494b"/><path d="M0 410.18a320.22 320.22 0 01188.85 1.59 279.55 279.55 0 00-96.13-20.79A262.73 262.73 0 000 410.18zm476.39-11.2c24.4-2.22 45.32-3.08 61.62-3.38 42.21-.77 58.57 2.13 71.59 5.64a170.12 170.12 0 0126.46 9.55 337.67 337.67 0 00-43.38-9.11 330.69 330.69 0 00-76.43-2 319.59 319.59 0 00-37.57 5.72c-.79-2.11-1.56-4.25-2.29-6.42zm-1.84-19.79c13.05-.75 23.75-1.78 31.14-2.6 35.17-3.88 48.45-8.91 71.47-6.86a171.2 171.2 0 0127.72 4.81 182.58 182.58 0 00-44.31-1.45 539.46 539.46 0 00-66.86 10.48c-6.29 1.36-11.45 2.58-14.86 3.41zm159.84-31c0-.61-26.56-1.25-54.48-.8-28.37.46-46.51 1.84-61.57 4.47-13 2.26-26.08 5.63-26.08 5.63-5.49 1.42-10.15 2.77-13.73 3.85l-.53 5.64c5.94-1.49 13.78-3.37 23-5.32 10.35-2.18 29.87-6 54.33-8.93 45.67-5.43 79.06-3.86 79.06-4.54z" fill="#4a494b"/><ellipse cx="211.29" cy="348.6" rx="39.76" ry="37.72" fill="#96ba56"/><ellipse cx="409.2" cy="330.59" rx="38.63" ry="35.68" fill="#75a5bd"/><circle cx="207.02" cy="346.82" r="26.51" fill="#2c292a"/><circle cx="197.83" cy="342.36" r="11.76" fill="#f8f8f9"/><circle cx="402.69" cy="327.82" r="26.51" fill="#2c292a"/><circle cx="396.61" cy="322.32" r="11.76" fill="#f8f8f9"/><path d="M435.81 486.59c2.73 19.27-37.26 42.54-67.55 52.21-42.32 13.52-78.93 4.74-110.18-2.75-6.6-1.58-81.55-20-80.65-41.65.2-4.79 4.08-8.6 7.48-11.14a221.29 221.29 0 00123.64 41.54c26.14.6 56.52 1.44 86.25-17a116.13 116.13 0 0033.88-32.35c3.16 2.63 6.45 6.32 7.13 11.14z" fill="#e29abd"/><ellipse cx="308.28" cy="547.62" rx="24.02" ry="23.31" fill="#efd97b"/><text transform="matrix(.94 0 0 1 290.38 549.96)" font-size="11.329" fill="#a0935d" font-family="MyriadPro-Regular,Myriad Pro"><tspan letter-spacing="-.016em">P</tspan><tspan x="5.85" y="0" letter-spacing=".004em">r</tspan><tspan x="9.6" y="0">in</tspan><tspan x="18.53" y="0" letter-spacing="-.006em">c</tspan><tspan x="23.54" y="0">ess</tspan></text></svg>