<svg xmlns="http://www.w3.org/2000/svg" viewBox="0 0 955.34 974.9"><path d="M497 973.75c25.55-13.62 37.66-29.44 43.84-39.91 35.16-59.67-.5-152.91 2-251.1.21-8.29.94-26.28 13.35-39.7 18.54-20 50.17-15.86 53.08-15.44 8.21 1.2 22.5 3.3 31.22 15.44 1.14 1.59 8.28 11.86 6 25.08-1.8 10.37-8.37 16.58-14 21.85-4.38 4.13-8 7.58-14 8.71-8.87 1.7-16.25-3.05-18.45-4.59a37.37 37.37 0 005.5-2.7 34.27 34.27 0 008.25-6.62c2.52-2.83 6.4-7.2 6.63-13.47.3-7.93-5.44-13.42-6.58-14.47a28.57 28.57 0 00-30.12 1c-10.74 7.48-11.64 20-11.73 21.57a209.16 209.16 0 00-4 59.74c1.77 22.37 6.26 31.68 14.14 63.1 11.54 46 17.48 69 15.77 95.29-2.15 32.92-14.45 59.12-24.58 76.2zm-334.84 0a355.94 355.94 0 0122.75-272.33l241.33-11.45a332.62 332.62 0 0144.89 114.6c14.4 76.39-1.84 138.79-12 169.18" fill="#2c292a"/><path d="M229.26 973.75c-15.07-36.1-36.62-102.79-26.48-184.83a350.87 350.87 0 0120.78-82.87l169.33 1.85a310.32 310.32 0 01-.46 267" fill="#fff"/><path d="M114.28 562.92a188.8 188.8 0 00-4.67-27.84c-10.63-43.14-30.78-58.06-40.1-97.19a155.84 155.84 0 01-4.12-40.78 176.1 176.1 0 0151 10.88c39.25 14.75 63.67 40.12 75.45 54.37z" fill="#2c292a"/><path d="M532.62 589.09c-11.06 58.4-78.75 92.13-97.19 101.27-34.24 17.06-63.78 20.45-89 23.12-41.37 4.37-174.79 19-220.78-56.24-23.76-38.87-15.21-81.76-13.75-88.54 22.49-104.87 190.25-192.56 309.26-140.69 60.76 26.49 123.85 95.91 111.46 161.08z" fill="#2c292a"/><path d="M184.91 701.42c15.24-8.78 57.5-35.27 78.8-79.86 11.27-23.61 14.54-43.14 14.54-43.14 2.5-15 4.25-40.53 4.79-48.48 1-14.67 1.33-24.53 8.75-32.64a32.81 32.81 0 0115.45-9.08c2.09 5.58 5.21 13.7 9.18 23.43 0 0 10.51 25.72 21 47.47 23.78 49.27 35.71 74 60.38 91.27 11.18 7.81 34.09 20.45 72.53 20a313.3 313.3 0 01-54.84 28.66c-16.71 6.7-97.7 37.5-195.43 13.33a310.6 310.6 0 01-35.15-10.96z" fill="#f8f8f9"/><path d="M311.81 643.04v-7.52a59.38 59.38 0 01-14.52-19.69 34.89 34.89 0 0133-5.26 23.75 23.75 0 01-2 15.11 23.12 23.12 0 01-6.8 8l4.11 7.7z" fill="#dabec1"/><path d="M260.89 650.08a66.52 66.52 0 0016.67 6.62 65.07 65.07 0 0012.56 1.83 29.87 29.87 0 009.42-1.52 35.85 35.85 0 008.17-4.19 61.74 61.74 0 008.91-6.86 61.79 61.79 0 0029.46 7.31 34.9 34.9 0 007.9-2.16 41 41 0 006.95-3.77c3.24-2.07 7.26-4.67 11.87-7.77a42.41 42.41 0 00-5.71.91c-10.38 2.43-11.93 7.12-20 8.41a24.82 24.82 0 01-13.53-1.78 24.45 24.45 0 01-7.94-5.68 47.4 47.4 0 00-5.08.19 57 57 0 00-8.7 1.42 37.21 37.21 0 01-15.37 8.79 40.1 40.1 0 01-16.6 1c-3.26-.54-5.32-1.34-10.73-2.06a81.88 81.88 0 00-8.25-.69zm-202.5-10.51c0 .29 24.19-5.51 59.25-6.74 25.1-.88 41.59 1.07 51 2.5a248.36 248.36 0 0129.67 6.4l12.38-4.19a307.35 307.35 0 00-80-8.51c-41.13 1.05-72.4 10.19-72.3 10.54zm-16.24 34.26c.1.28 22.94-9.44 57.31-16.47 24.61-5 41.19-5.83 50.68-6a249.43 249.43 0 0130.31 1.39q5.76-3.09 11.51-6.19a307.14 307.14 0 00-80.29 4.88c-40.28 7.84-69.63 22.06-69.52 22.39z" fill="#4a494b"/><path d="M0 628.34a320.22 320.22 0 01188.85 1.59 279.55 279.55 0 00-96.13-20.71A262.73 262.73 0 000 628.34zm476.39-11.12c24.4-2.22 45.32-3.08 61.62-3.38 42.21-.77 58.57 2.13 71.59 5.64a170.12 170.12 0 0126.46 9.55 337.32 337.32 0 00-43.38-9.11 330.69 330.69 0 00-76.43-2 319.91 319.91 0 00-37.57 5.72q-1.18-3.26-2.29-6.42zm-1.83-19.87c13-.75 23.75-1.78 31.14-2.6 35.17-3.88 48.45-8.91 71.47-6.86a171.2 171.2 0 0127.72 4.81 182.55 182.55 0 00-44.33-1.48 539.46 539.46 0 00-66.86 10.48c-6.29 1.36-11.45 2.58-14.86 3.41zm159.83-31c0-.61-26.56-1.25-54.48-.8-28.37.46-46.51 1.84-61.57 4.47-13 2.26-26.08 5.63-26.08 5.63-5.49 1.42-10.15 2.77-13.73 3.85l-.58 5.66c5.94-1.49 13.78-3.37 23-5.32 10.35-2.18 29.87-6 54.33-8.93 45.71-5.45 79.11-3.88 79.11-4.56z" fill="#4a494b"/><path d="M511.77 508.76c2.58-2-1-8.73-2.22-22.65-2.08-24.56 5.85-42.73 8.84-51.66 6-18.07 8.9-49.16-6.62-106a101.44 101.44 0 00-26 8.16c-49 23.07-63.5 79.11-66.6 92.43 68.22 70.79 88.15 83.24 92.6 79.72z" fill="#2c292a"/><ellipse cx="211.29" cy="566.76" rx="39.76" ry="37.72" fill="#96ba56"/><ellipse cx="409.2" cy="548.75" rx="38.63" ry="35.68" fill="#75a5bd"/><circle cx="207.02" cy="564.98" r="26.51" fill="#2c292a"/><circle cx="197.83" cy="560.52" r="11.76" fill="#f8f8f9"/><circle cx="402.69" cy="545.98" r="26.51" fill="#2c292a"/><circle cx="396.61" cy="540.48" r="11.76" fill="#f8f8f9"/><path d="M890.22 208.01v.81c0 66.07-50.16 119.63-112 119.63-38.84 0-73.06-21.1-93.16-53.15a91.81 91.81 0 01-149.5-85.82c-27-6.51-47.14-32.78-47.14-64.19 0-36.3 27-65.74 60.19-65.74a55.37 55.37 0 0112.81 1.5c12.55-33.22 46.7-57 86.86-57 28.53 0 54 12 70.9 30.9 12.39-18.54 34.62-30.9 60-30.9 35 0 64.06 23.56 69.46 54.41a65.18 65.18 0 0131.46-8.12c39.38 0 71.3 35.49 71.3 79.27-.06 39.88-26.62 72.92-61.18 78.4z" fill="#fff" stroke="#1c6791" stroke-miterlimit="10" stroke-width="8"/><circle cx="601.7" cy="343.63" r="15.18" fill="#fff" stroke="#1c6791" stroke-miterlimit="10" stroke-width="8"/><circle cx="564.1" cy="395.2" r="7.87" fill="#fff" stroke="#1c6791" stroke-miterlimit="10" stroke-width="8"/><path d="M686.69 87.01a138.38 138.38 0 0172.71 0c9.8 20.86 4.38 34.5-.45 42-3.75 5.78-13.58 13.75-33.09 29.45-22.31 18-24.4 18.21-29.58 23.64-9 9.4-17.54 24.23-14.14 47.57a95.47 95.47 0 0033.83 7.13 98.39 98.39 0 0040.91-7.13c8.43-22.91 1.27-38.14-4-46-5.46-8.06-12.66-13.8-27-25.22-25-19.94-34.22-21.29-41.19-31.37-5.51-7.97-9.13-20.53 2-40.07z" fill="#d4f7ff"/><rect x="662.54" y="67.59" width="119.09" height="14.81" rx="6.61" fill="#9b6937"/><rect x="658.08" y="236.3" width="119.09" height="14.81" rx="6.61" fill="#9b6937"/><rect x="671.85" y="74.56" width="7.6" height="169.15" rx="1.96" fill="#9b6937"/><rect x="763.86" y="76.31" width="7.6" height="169.15" rx="1.96" fill="#9b6937"/></svg>