<svg xmlns="http://www.w3.org/2000/svg" viewBox="0 0 829.37 579.29"><path fill="#3f3f3f" d="M61.11 352.44h727.52v226.85H61.11z"/><rect x="29.63" width="759" height="343.51" rx="12" fill="#af9474"/><rect x="50.21" y="168.18" width="721.14" height="214.22" rx="107.11" fill="#acc691"/><rect y="259.07" width="81.48" height="320.22" rx="12" fill="#9b7c4b"/><path d="M782.24 393.18c45.14 68.79-16.43 176.08-22.35 186.11H173.7c65.62-76.85 192.28-198.18 375.41-226.85 63.06-9.88 187.17-29.32 233.13 40.74z" fill="#4c4c4c"/><rect x="747.89" y="259.07" width="81.48" height="320.22" rx="12" fill="#9b7c4b"/><rect x="573.83" y="194.24" width="81.48" height="829.37" rx="12" transform="rotate(90 642.87 380.74)" fill="#9b7c4b"/><ellipse cx="124.33" cy="472.54" rx="20.36" ry="16.36" fill="#f7e037"/><ellipse cx="124.3" cy="471.77" rx="3.04" ry="14.71" fill="#141414"/><ellipse cx="180.5" cy="471.77" rx="20.36" ry="16.36" fill="#f7e037"/><ellipse cx="180.46" cy="471.01" rx="3.04" ry="14.71" fill="#141414"/><path d="M155.22 485.66c.83 1.56-.13 4.29-2.94 5.72-2.84-1.4-3.82-4.16-3-5.71a3.46 3.46 0 013-1.55 3.41 3.41 0 012.94 1.54z" fill="#f7d0e7"/></svg>