<svg version="1.1" id="Layer_1" xmlns="http://www.w3.org/2000/svg" x="0" y="0" viewBox="0 0 646.9 756.7" xml:space="preserve"><style>.st0{fill:#2c292a}.st2{fill:#f8f8f9}.st4{fill:#4a494b}</style><path class="st0" d="M497 755.6c25.5-13.6 37.7-29.4 43.8-39.9 35.2-59.7-.5-152.9 2-251.1.2-8.3.9-26.3 13.3-39.7 18.5-20 50.2-15.9 53.1-15.4 8.2 1.2 22.5 3.3 31.2 15.4 1.1 1.6 8.3 11.9 6 25.1-1.8 10.4-8.4 16.6-14 21.8-4.4 4.1-8 7.6-14 8.7-8.9 1.7-16.2-3-18.5-4.6 1.9-.7 3.7-1.7 5.5-2.7 3.1-1.8 5.9-4 8.2-6.6 2.5-2.8 6.4-7.2 6.6-13.5.3-7.9-5.4-13.4-6.6-14.5-9.7-5.4-21.4-5-30.1 1-10.7 7.5-11.6 20-11.7 21.6-4.2 19.6-5.5 39.7-4 59.7 1.8 22.4 6.3 31.7 14.1 63.1 11.5 46 17.5 69 15.8 95.3-2.2 32.9-14.5 59.1-24.6 76.2l-76.1.1z" id="Layer_17"/><path class="st0" d="M124.3 755.6c-10-24.5-21.5-61.8-21.7-107.9-.4-91.4 43.7-156.7 61.6-180.6 95.7-3.8 191.4-7.7 287.2-11.5 12.9 16.4 29.4 40.2 44 71.4 1.2 2.5 15.1 31.7 21.7 59.4 18.3 76.4-2.3 138.8-15.3 169.2" id="Layer_4"/><path d="M229.3 755.6c-15.1-36.1-36.6-102.8-26.5-184.8 3.5-28.4 10.5-56.2 20.8-82.9l169.3 1.8c40.1 84.5 39.9 182.6-.5 267" fill="#fff"/><path class="st0" d="M511.8 290.6c2.6-2-1-8.7-2.2-22.6-2.1-24.1 5.6-41.8 8.8-51.7 5.9-17.9 10-47.2.1-97.1l-16.8-6.6c-5.9 1.6-11.1 3.6-15.9 5.9-45.5 21.6-61.6 73.1-66.6 92.4 68.2 70.8 88.1 83.2 92.6 79.7z"/><path class="st0" d="M114.3 344.8c-.9-9.4-2.4-18.7-4.7-27.8-10.6-43.1-30.8-58.1-40.1-97.2-3.2-13.4-4.6-27.1-4.1-40.8 17.4 1.1 34.6 4.7 51 10.9 39.2 14.8 63.7 40.1 75.5 54.4l-77.6 100.5z" id="Layer_5"/><path class="st0" d="M532.6 371c-11.1 58.4-78.8 92.1-97.2 101.3-34.2 17.1-63.8 20.5-89 23.1-41.4 4.4-174.8 19-220.8-56.2-23.8-38.9-15.2-81.8-13.8-88.5 22.6-105 190.4-192.7 309.4-140.8C481.9 236.4 545 305.8 532.6 371z" id="Layer_3"/><path class="st2" d="M184.9 483.3c15.2-8.8 57.5-35.3 78.8-79.9 11.3-23.6 14.5-43.1 14.5-43.1 2.5-15 4.2-40.5 4.8-48.5 1-14.7 1.3-24.5 8.8-32.6 4.2-4.4 9.6-7.6 15.5-9.1 2.1 5.6 5.2 13.7 9.2 23.4 0 0 10.5 25.7 21 47.5 23.8 49.3 35.7 74 60.4 91.3 11.2 7.8 34.1 20.5 72.5 20-17.3 11.3-35.7 20.9-54.8 28.7-16.7 6.7-97.7 37.5-195.4 13.3-12.1-3.1-23.8-6.7-35.3-11z" id="Layer_10"/><path d="M311.8 424.9v-7.5c-6.2-5.5-11.1-12.2-14.5-19.7 9.4-7.3 21.8-9.2 33-5.3 1 5.1.3 10.4-2 15.1-1.6 3.2-4 5.9-6.8 8l4.1 7.7-13.8 1.7z" fill="#dabec1" id="Layer_12"/><path class="st4" d="M260.9 431.9c5.2 3 10.8 5.2 16.7 6.6 4.1 1 8.3 1.6 12.6 1.8 3.2 0 6.4-.5 9.4-1.5 2.9-1 5.6-2.4 8.2-4.2 3.2-2 6.2-4.3 8.9-6.9 9.1 4.8 19.2 7.4 29.5 7.3 2.7-.4 5.4-1.1 7.9-2.2 2.4-1 4.8-2.3 7-3.8 3.2-2.1 7.3-4.7 11.9-7.8-1.9.2-3.8.5-5.7.9-10.4 2.4-11.9 7.1-20 8.4-4.6.7-9.3.1-13.6-1.8-3-1.3-5.7-3.3-7.9-5.7-1.6 0-3.3 0-5.1.2-2.9.2-5.8.7-8.7 1.4-4.3 4.1-9.6 7.1-15.4 8.8-5.4 1.5-11.1 1.8-16.6 1-3.3-.5-5.3-1.3-10.7-2.1-3.6-.1-6.5-.3-8.4-.4z" id="Layer_13"/><g id="Layer_14"><path class="st4" d="M58.4 421.4c0 .3 24.2-5.5 59.2-6.7 25.1-.9 41.6 1.1 51 2.5 10 1.5 19.9 3.7 29.7 6.4l12.4-4.2c-26.2-6.3-53.1-9.2-80-8.5-41.1 1-72.4 10.2-72.3 10.5zm-16.2 34.3c.1.3 22.9-9.4 57.3-16.5 24.6-5 41.2-5.8 50.7-6 10.1-.2 20.2.3 30.3 1.4 3.8-2.1 7.7-4.1 11.5-6.2-26.9-1.9-53.9-.3-80.3 4.9-40.3 7.8-69.7 22.1-69.5 22.4z"/><path class="st4" d="M0 410.2c61.7-18.5 127.5-17.9 188.9 1.6-30.6-12.5-63.1-19.6-96.1-20.8-31.9.8-63.3 7.2-92.8 19.2z"/></g><path class="st4" d="M476.4 399c24.4-2.2 45.3-3.1 61.6-3.4 42.2-.8 58.6 2.1 71.6 5.6 9.1 2.4 17.9 5.6 26.5 9.5-14.2-4-28.7-7-43.4-9.1-25.3-3.6-51-4.3-76.4-2-12.6 1.2-25.2 3.1-37.6 5.7-.8-2-1.6-4.1-2.3-6.3zm-1.9-19.8c13-.8 23.8-1.8 31.1-2.6 35.2-3.9 48.5-8.9 71.5-6.9 9.4.8 18.6 2.5 27.7 4.8-14.7-2.3-29.5-2.8-44.3-1.5-22.5 2.1-44.8 5.6-66.9 10.5-6.3 1.4-11.5 2.6-14.9 3.4l-4.2-7.7zm159.9-31c0-.6-26.6-1.2-54.5-.8-28.4.5-46.5 1.8-61.6 4.5-13 2.3-26.1 5.6-26.1 5.6-5.5 1.4-10.2 2.8-13.7 3.8l-.5 5.7c5.9-1.5 13.8-3.4 23-5.3 10.3-2.2 29.9-6 54.3-8.9 45.7-5.5 79.1-3.9 79.1-4.6z" id="Layer_15"/><ellipse cx="212.2" cy="344.3" rx="39.8" ry="31.7" fill="#96ba56" id="Layer_7"/><ellipse cx="409.2" cy="334.8" rx="38.6" ry="31.5" fill="#75a5bd" id="Layer_8"/><g id="Layer_9"><ellipse transform="rotate(-42.885 207.849 350.26)" class="st0" cx="207.8" cy="350.2" rx="21.8" ry="21.3"/><ellipse transform="rotate(-42.885 201.904 356.19)" class="st2" cx="201.9" cy="356.2" rx="9.7" ry="9.5"/></g><g id="Layer_11"><ellipse transform="rotate(-67.189 401.893 339.755)" class="st0" cx="401.9" cy="339.8" rx="22.8" ry="22.7"/><circle transform="rotate(-67.189 395.525 342.743)" class="st2" cx="395.5" cy="342.7" r="10.1"/></g><path d="M283.7 378.4l-123.3 6.5c-6.6.3-12.3-4.8-12.6-11.3l-1-18.1c-.3-6.6 4.8-12.3 11.3-12.6l123.3-6.5c6.6-.3 12.3 4.8 12.6 11.3l1 18.1c.4 6.5-4.7 12.2-11.3 12.6zm183.8-12.8l-123.3 6.5c-6.6.3-12.3-4.8-12.6-11.3l-1-18.1c-.3-6.6 4.8-12.3 11.3-12.6l123.3-6.5c6.6-.3 12.3 4.8 12.6 11.3l1 18.1c.4 6.5-4.7 12.2-11.3 12.6zm-173-8.8l35.1-2.8" fill="none" stroke="#878787" stroke-width="4" stroke-miterlimit="10"/><path d="M508.4 212.3c3.1-6.7 5.5-12.3 7.1-16.2 7.7-18.5 9.4-26.1 16.1-37.4 2.7-4.6 5.7-9 8.8-13.2-4.6 7-8.6 14.4-12 22.1-5.1 11.7-9.6 23.7-13.6 35.7-1.2 3.4-2.1 6.2-2.7 8.1l-3.7.9zm-1.2-25.5c2.6-6.9 4.6-12.7 5.9-16.7 6.3-19 7.5-26.7 13.3-38.4 2.4-4.8 5-9.4 7.8-13.8-4 7.3-7.5 15-10.3 23-4.2 12.1-7.8 24.3-10.9 36.6-.9 3.5-1.6 6.4-2 8.3l-3.8 1zm-3.3 57.8c2.9-9.9 5.9-18 8.5-24.3 6.7-16.3 11.1-21.8 15.3-25.9 2.9-2.8 6.2-5.4 9.9-7.7-4.7 4.4-8.8 9.2-12.5 14.2-6.3 8.7-11.1 18.3-14.1 28.6-1.5 5.1-2.5 10.4-3.1 15.8-1.4-.2-2.7-.4-4-.7zM99.3 272.1c-1.3-1.4-3.4-3.6-5.9-6.2-8.8-9.1-18.1-17.8-27.8-26.2-6.4-5.5-13.2-10.4-20.4-14.7 4.7 2.4 9.3 5 13.7 8 10.9 7.2 15.7 13.4 30.8 26.6 3.2 2.8 7.8 6.8 13.5 11.5l-3.9 1zm-10.1-23.9c-1.2-1.5-3.1-3.8-5.5-6.6-8.1-9.7-16.8-19.1-25.8-28.1-6-5.9-12.4-11.4-19.3-16.2 4.5 2.7 8.8 5.7 13 9 10.3 8 14.7 14.5 28.7 28.8 2.9 3 7.2 7.3 12.6 12.4l-3.7.7zm28.8 52.4c-2.9-4.6-6.1-8.9-9.7-12.8-7.2-7.9-15.6-14.5-25.1-19.6-5.5-3-11.3-5.4-17.5-7.4 4.3.4 8.4 1.3 12.2 2.6 5.5 1.8 11.9 4.9 25.1 16.6 5.1 4.5 11.4 10.6 18.3 18.2l-3.3 2.4z" fill="#b2b2b2"/><path d="M236.4 755.5H82c-4.8 0-8.8-3.5-8.8-7.7v-34.3c0-4.3 4-7.7 8.8-7.7h154.3c2.1-.1 4.2-.1 6.3-.2 2.7.2 4.7 2 4.8 4 .1 1.5-.8 3-2.3 3.9v34.3c.2.2 1.6 1.6 1.4 3.6-.2 2.4-2.5 3.6-2.7 3.7-2.4.1-4.9.3-7.4.4z" fill="#76a558"/><path d="M236.4 747.8H91.8c-4.8 0-8.8-3.5-8.8-7.7V721c0-4.3 4-7.7 8.8-7.7h144.6c2.9.1 5.9.2 8.8.4v34c-2.9.1-5.9.1-8.8.1z" fill="#d6d4b2"/><path d="M91.9 722.3l153.3-1.4M92 731.3l153.3-1.3m-153.2 9l153.3-1.3" fill="none" stroke="#a8a685" stroke-miterlimit="10"/></svg>