<svg xmlns="http://www.w3.org/2000/svg" viewBox="0 0 1102.41 832.6"><path d="M715.63 814.29c25.55-13.62 37.66-29.44 43.84-39.91 35.16-59.67-.5-152.91 2-251.1.21-8.29.94-26.28 13.35-39.7 18.54-20 50.17-15.86 53.08-15.44 8.21 1.2 22.5 3.3 31.22 15.44 1.14 1.59 8.28 11.86 6 25.08-1.8 10.37-8.37 16.58-14 21.85-4.38 4.13-8 7.58-14 8.71-8.87 1.7-16.25-3-18.45-4.59a37.87 37.87 0 005.5-2.7 34.27 34.27 0 008.25-6.62c2.52-2.83 6.4-7.2 6.63-13.47.3-7.93-5.44-13.42-6.58-14.47a28.57 28.57 0 00-30.12 1c-10.72 7.48-11.64 20-11.72 21.59a209.16 209.16 0 00-4 59.74c1.77 22.37 6.26 31.68 14.14 63.1 11.54 46 17.48 69 15.77 95.29-2.15 32.92-14.45 59.12-24.58 76.2zm-334.84 0a355.94 355.94 0 0122.75-272.33l241.33-11.45a332.62 332.62 0 0144.89 114.6c14.4 76.39-1.84 138.79-12 169.18" fill="#2c292a"/><path d="M447.89 814.29c-15.07-36.1-36.62-102.79-26.48-184.83a350.87 350.87 0 0120.79-82.87l169.33 1.85a310.32 310.32 0 01-.46 267" fill="#fff"/><path d="M332.91 403.46a188.8 188.8 0 00-4.67-27.84c-10.63-43.14-30.78-58.06-40.1-97.19a155.84 155.84 0 01-4.12-40.78 176.17 176.17 0 0151 10.88c39.25 14.75 63.67 40.12 75.45 54.37z" fill="#2c292a"/><path d="M751.25 429.63c-11.1 58.4-78.75 92.09-97.19 101.27-34.24 17.06-63.78 20.45-89 23.12-41.37 4.37-174.79 19-220.78-56.24-23.76-38.87-15.21-81.76-13.75-88.54 22.49-104.87 190.25-192.56 309.26-140.69 60.76 26.49 123.84 95.91 111.46 161.08z" fill="#2c292a"/><path d="M403.54 541.96c15.24-8.78 57.5-35.27 78.8-79.86 11.29-23.61 14.54-43.14 14.54-43.14 2.5-15 4.25-40.53 4.79-48.48 1-14.67 1.33-24.53 8.75-32.64a32.81 32.81 0 0115.45-9.13c2.09 5.58 5.21 13.7 9.18 23.43 0 0 10.51 25.72 21 47.47 23.78 49.27 35.71 74 60.38 91.27 11.18 7.81 34.09 20.45 72.53 20a313.3 313.3 0 01-54.84 28.66c-16.71 6.7-97.7 37.5-195.43 13.33a312.64 312.64 0 01-35.15-10.91z" fill="#f8f8f9"/><path d="M530.44 483.58v-7.52a59.38 59.38 0 01-14.52-19.69 34.89 34.89 0 0133-5.26 23.75 23.75 0 01-2 15.11 23.12 23.12 0 01-6.8 8l4.11 7.7z" fill="#dabec1"/><path d="M277.02 480.11c.05.29 24.19-5.51 59.25-6.74 25.1-.88 41.59 1.07 51 2.5a248.36 248.36 0 0129.67 6.4l12.38-4.19a307.39 307.39 0 00-80-8.51c-41.12 1.05-72.4 10.21-72.3 10.54zm-16.24 34.26c.1.28 22.94-9.44 57.31-16.47 24.61-5 41.19-5.83 50.68-6a249.52 249.52 0 0130.31 1.39q5.76-3.09 11.51-6.19a307.11 307.11 0 00-80.29 4.86c-40.28 7.86-69.67 22.08-69.52 22.41z" fill="#4a494b"/><path d="M218.63 468.88a320.22 320.22 0 01188.85 1.59 279.55 279.55 0 00-96.13-20.76 262.73 262.73 0 00-92.72 19.17zm476.39-11.16c24.4-2.22 45.32-3.08 61.62-3.38 42.21-.77 58.57 2.13 71.59 5.64a170.12 170.12 0 0126.46 9.55 337.67 337.67 0 00-43.38-9.11 330.69 330.69 0 00-76.43-2 319.59 319.59 0 00-37.57 5.72c-.79-2.18-1.56-4.29-2.29-6.42zm-1.84-19.83c13.05-.75 23.75-1.78 31.14-2.6 35.17-3.88 48.45-8.91 71.47-6.86a171.2 171.2 0 0127.72 4.81 182.58 182.58 0 00-44.31-1.45 539.46 539.46 0 00-66.86 10.48c-6.29 1.36-11.45 2.58-14.86 3.41zm159.84-31c0-.61-26.56-1.25-54.48-.8-28.37.46-46.51 1.84-61.57 4.47-13 2.26-26.08 5.63-26.08 5.63-5.49 1.42-10.15 2.77-13.73 3.85l-.58 5.66c5.94-1.49 13.78-3.37 23-5.32 10.35-2.18 29.87-6 54.33-8.93 45.72-5.49 79.11-3.88 79.11-4.56z" fill="#4a494b"/><path d="M730.4 349.3c2.58-2.05-1-8.73-2.22-22.65-2.08-24.56 5.85-42.73 8.84-51.66 6-18.07 8.9-49.16-6.62-106a101.44 101.44 0 00-26 8.16c-49 23.07-63.5 79.11-66.6 92.43 68.22 70.79 88.15 83.24 92.6 79.72z" fill="#2c292a"/><ellipse cx="429.92" cy="407.3" rx="39.76" ry="37.72" fill="#96ba56"/><ellipse cx="627.83" cy="389.29" rx="38.63" ry="35.68" fill="#75a5bd"/><circle cx="425.65" cy="405.52" r="26.51" fill="#2c292a"/><circle cx="416.46" cy="401.06" r="11.76" fill="#f8f8f9"/><circle cx="621.32" cy="386.52" r="26.51" fill="#2c292a"/><circle cx="615.24" cy="381.02" r="11.76" fill="#f8f8f9"/><path fill="#edeabe" d="M537.91 486.34L277.02 557.7l13.11 27.64 256.11-95.04-8.33-3.96z"/><path d="M479.52 490.62a65.87 65.87 0 0029.24 8.45 29.87 29.87 0 009.42-1.52 35.85 35.85 0 008.17-4.19 62.29 62.29 0 008.91-6.86 61.77 61.77 0 0029.46 7.31 34.9 34.9 0 007.9-2.16 41 41 0 007-3.77c3.24-2.07 7.26-4.67 11.87-7.77a42.41 42.41 0 00-5.71.91c-10.38 2.43-11.93 7.12-20 8.41a24.81 24.81 0 01-13.56-1.78 24.45 24.45 0 01-7.99-5.69 47.4 47.4 0 00-5.08.19 57 57 0 00-8.7 1.42 37.21 37.21 0 01-15.37 8.79 40.1 40.1 0 01-16.6 1c-3.26-.54-5.32-1.34-10.73-2.06a81.88 81.88 0 00-8.23-.68z" fill="#4a494b"/><path fill="#f2aaaa" d="M317.63 546.59l28.78 17.87 13.3-4.94-26.8-17.11-15.28 4.18zm54.44-14.89l27.8 12.91 7.67-2.84-24.18-13.16-11.29 3.09zm46.24-12.65l22.08 10.53 4.91-1.82-20.67-10.44zm37.94-10.38l17.15 8.66 3.21-1.2-17.32-8.29-3.04.83zm28.24-7.72l14.46 6.89 2.38-.88-14.19-6.74-2.65.73z"/><path d="M436.37 284.06l-40-116.31 57.11 31.59 28.24-68.93 31.43 53.13 30.32-45.95 13.39 116.37a158.68 158.68 0 01-120.49 30.1z" fill="#f9d782"/><path d="M283.63 555.9a64.29 64.29 0 0014.94 26.33 14.11 14.11 0 01-8.4 3.11c-7.84 0-12.91-7.86-14.89-10.93a30.29 30.29 0 01-4.65-14.45 9.8 9.8 0 0113-4z" fill="#e2deb0"/><path d="M273.33 557.96a50.06 50.06 0 0013.53 24.32 25.94 25.94 0 01-11.44-12.19 25.48 25.48 0 01-2.09-12.13z" fill="#eae7ca"/><path d="M1102.41 194.61c0-36.15-28.71-66.72-68.15-76.72a74.59 74.59 0 007.31-32.17C1041.57 38.38 996.7 0 941.34 0c-30.28 0-57.4 11.49-75.77 29.63a5.72 5.72 0 011.4 1.24c16.72-15.39 40.13-25 66.08-25 50.77 0 91.93 36.65 91.93 81.85a73.58 73.58 0 01-5.87 28.83c39.7 11.2 68.12 41.21 68.12 76.47 0 26.28-15.78 49.63-40.25 64.46a51.74 51.74 0 011.12 10.75c0 35.41-35.74 64.12-79.84 64.12-19.25 0-36.9-5.47-50.69-14.59a5.53 5.53 0 01-2 1.87c14.8 11.33 35.13 18.33 57.57 18.33 45.43 0 82.26-28.62 82.26-63.91a49.21 49.21 0 00-1-10c28.69-13.89 48.01-39.78 48.01-69.44z" fill="#5bc6ce"/><path d="M829.69 338.87c0-13.7 10.83-25.29 25.7-29.09a28.38 28.38 0 01-2.76-12.19c0-17.95 16.92-32.5 37.79-32.5 11.42 0 21.64 4.35 28.57 11.23a2.38 2.38 0 00-.53.47 36.62 36.62 0 00-24.91-9.47c-19.14 0-34.66 13.9-34.66 31a28.08 28.08 0 002.21 10.93c-15 4.24-25.68 15.62-25.68 29 0 10 6 18.82 15.17 24.44a19.75 19.75 0 00-.42 4.08c0 13.43 13.48 24.31 30.1 24.31a34.52 34.52 0 0019.11-5.53 2.19 2.19 0 00.77.71 35.8 35.8 0 01-21.72 6.95c-17.12 0-31-10.86-31-24.24a19.21 19.21 0 01.38-3.8c-10.83-5.21-18.12-15.05-18.12-26.3z" fill="#7a5ccc"/><path d="M841.89 57.42c-26.85-12.85-57.59-6.93-76 12.57a75.48 75.48 0 00-21.85-15.7c-35.17-16.83-76.22-4.24-91.7 28.12-8.46 17.69-7.51 37.62.83 54.81a3.82 3.82 0 011.31-.38c-6.75-15.24-7.32-32.33-.07-47.49 14.2-29.68 52.92-40.71 86.5-24.65a74.86 74.86 0 0119.72 13.68 67 67 0 01112.49 33.78 54 54 0 018.29 3.16c26.31 12.64 37.64 43.64 25.32 69.45a50.9 50.9 0 01-25 24.44 4.09 4.09 0 01.83 1.86 53.44 53.44 0 0029.69-27.11c12.7-26.55 1.73-58.24-24.48-70.78a50.09 50.09 0 00-7.74-3c-2.28-21.73-16.11-42.22-38.14-52.76z" fill="#e08846"/><path d="M1.44 240.83c7.17-35.43 39.51-60.08 77.6-62.57a79 79 0 01-.31-32.89c9.38-46.41 58.07-75.71 108.75-65.41 27.71 5.61 50.26 21.89 63.49 43.08a5.38 5.38 0 00-1.53 1 87.63 87.63 0 00-55.54-36.7c-46.49-9.41-91.43 18.89-100.39 63.19a78.21 78.21 0 00-.34 29.35c-38.54 3.52-70.54 27.67-77.54 62.23-5.22 25.76 4.6 51.57 24.06 70.64a55.38 55.38 0 00-3.16 10.32c-7 34.72 20 69.48 60.37 77.64a81.9 81.9 0 0049.3-4.91 5.51 5.51 0 001.5 2.21c-15.83 8.35-35.82 11.44-56.37 7.28-41.58-8.41-69.63-43.28-62.63-77.87a52.07 52.07 0 012.93-9.65C8.11 298.86-4.44 269.9 1.44 240.83z" fill="#cc5ccc"/><path d="M261.19 415.83c0-17.46-17.76-32.22-42.16-37a29.67 29.67 0 004.52-15.54c0-22.86-27.76-41.4-62-41.4-18.73 0-35.51 5.55-46.88 14.31a3.44 3.44 0 01.87.6c10.34-7.43 24.83-12.06 40.88-12.06 31.42 0 56.88 17.7 56.88 39.53a29 29 0 01-3.67 13.88c24.56 5.4 42.14 19.9 42.14 36.93 0 12.69-9.76 24-24.9 31.13a19.68 19.68 0 01.7 5.19c0 17.11-22.12 31-49.4 31-11.91 0-22.83-2.65-31.36-7a3.29 3.29 0 01-1.26.9c9.18 5.47 21.75 8.85 35.64 8.85 28.1 0 50.89-13.82 50.89-30.87a18.82 18.82 0 00-.63-4.85c17.79-6.77 29.74-19.27 29.74-33.6z" fill="#ddbe3c"/><path d="M343.83 27.22c23.16-15.43 54.09-11.46 76.08 7.66a61.25 61.25 0 0117.72-18.07c30.33-20.21 72.65-10 94.51 22.83a73.8 73.8 0 0111 57.57 4.48 4.48 0 00-1.35-.3 66.56 66.56 0 00-10.16-49.83c-20-30.11-59.79-38.87-88.75-19.57a60.62 60.62 0 00-16.16 15.79c-22.85-18.76-53.31-22.8-75.9-7.75-16.84 11.22-25.57 30.55-25.41 51.38a42.54 42.54 0 00-7.33 3.93c-22.7 15.12-27 48.57-9.56 74.71a62.11 62.11 0 0029.38 23.82 4.14 4.14 0 00-.4 2c-13.11-4-25.62-13-34.49-26.33-17.94-26.94-14.15-61 8.46-76.06a41.5 41.5 0 016.84-3.68c-2.44-22.93 6.51-45.44 25.52-58.1z" fill="#95db5d"/><path d="M612.72 821.08l20-131.45c.72-2.5 1.83-6.17 3.38-10.55 8-22.61 17.84-35.93 23.16-45.18 6.34-11 13.09-28.2 13.44-54.21a10.29 10.29 0 01-2.25-12.3c2.64-4.76 8.42-5.16 8.76-5.17a23 23 0 017.25.09 23.24 23.24 0 016 1.92 10.06 10.06 0 017.64 7.23c1 4.37-1.55 9.11-6.26 11-5.81 25.75-3.71 44.66-.56 57.38 2.65 10.67 8.58 27.27 9.14 51.88.1 4.35 0 8-.08 10.39l-19.15 129.72a141.06 141.06 0 01-70.49-10.76z" fill="#e8d66b"/><path d="M659.31 633.9a83.3 83.3 0 0034 5.95c2.54 8.5 4.77 17.43 6.58 26.79 12.74 66-1.16 124.41-16.67 165.2a141.06 141.06 0 01-70.49-10.76c-2.65-44.07 1.56-103.77 32.62-163.31 4.41-8.47 9.1-16.42 13.96-23.87z" fill="#8ee073"/><ellipse cx="716.31" cy="822.55" rx="8.36" ry="10.8" transform="rotate(-81.33 588.372 753.52)" fill="#ddb672"/><path d="M619.26 730.19a249 249 0 0084.6 12.91 319.91 319.91 0 01-7.23 45.09c-2.32 9.88-5 19.07-7.78 27.52a97.3 97.3 0 01-76.75-11.18c-.17-9.41 0-19.57.84-30.35a327.62 327.62 0 016.32-43.99z" fill="#ddb672"/></svg>