<svg xmlns="http://www.w3.org/2000/svg" viewBox="0 0 538.87 881.5"><path d="M242.59 0c.75-.95 103.32 46.35 175.93 163 8.77 14.08 127 208.37 54.29 306.54C424 535.44 333 498.67 276.82 579.33c-31.33 45-14.69 73.14-39.78 135.5-19.6 48.7-61.67 110.84-161.11 166.67L0 824.09l51.85-85.19a387.88 387.88 0 00133.34-22.22c141.08-50.36 208.23-169.77 231.48-211.11 34.28-61 78.55-139.68 64.81-231.48C455.59 101 241.52 1.39 242.59 0z" fill="#8138c1"/><path d="M393 877.76h22.44L380 856.06l-29.1-16.27c1.32 21.14 19.7 37.97 42.1 37.97z" fill="#fde494"/><path d="M474 865.36l-25.33-6.2H393c-12.51 0-22.69-9.74-22.69-21.7v-11.9l-9.72-10-9.73 1.64v20.24c0 .78 0 1.56.07 2.33l64.51 38h76.66z" fill="#fea150"/><path d="M513 852.52a23.12 23.12 0 01-16.31 6.64h-48l43.39 18.6h4.63a42.62 42.62 0 0035.86-19.15l-9.91-5.61z" fill="#ff5d4a"/><path d="M519.42 812.44v25a21.12 21.12 0 01-6.42 15.08l19.55 6.09a38.79 38.79 0 006.28-21.15V815.4l-10.02-5.4z" fill="#e45261"/><path fill="#ff4d95" d="M538.87 750.34l-10.35-2.36-9.1 5.2v59.26l19.45 2.96v-65.06z"/><path d="M538.87 738.24c0-20.24-15.68-37-36-39.88l-25.5 10.15-12.92 8h32.31c12.52 0 22.69 9.74 22.69 21.7v14.94l19.45-2.84z" fill="#cb319c"/><path d="M467.54 697.94l-24.12 8.65-19 9.95h40l38.42-18.18a44 44 0 00-6.11-.42z" fill="#8a3293"/><path d="M444.87 840.56a57.07 57.07 0 0019.18-3.3l-31.59-13.71L399 817a55.78 55.78 0 0045.87 23.56z" fill="#ff5d4a"/><path d="M471.73 805.18a32.79 32.79 0 01-26.86 13.67c-14.79 0-27.28-9.52-31.16-22.49l-8.7-5.2-15 1.59A50.9 50.9 0 00399 817l65.07 20.27a54.47 54.47 0 0031.38-28.47l-11.66-5.65z" fill="#e45261"/><path d="M412.46 787.85a30.05 30.05 0 017.8-20.14l-13.83-1.85-14 5.93a50.38 50.38 0 00-2.62 16.06c0 1.65.09 3.29.25 4.9l23.69 3.61a29.64 29.64 0 01-1.29-8.51zm87.54 0a50.8 50.8 0 00-10.08-30.34l-13.73-1.87-14.1 5.94a30.74 30.74 0 0115.22 26.27 29.83 29.83 0 01-5.56 17.33l23.7 3.61a50.42 50.42 0 004.55-20.94z" fill="#ff4d95"/><path d="M444.87 756.84a33.38 33.38 0 0117.2 4.74l27.83-4.07a55.83 55.83 0 00-45-22.37c-24.53 0-45.37 15.42-52.48 36.65l27.87-4.08a33 33 0 0124.58-10.87zm51.86-6.2c7.15 0 13-5.56 13-12.4s-5.82-12.4-13-12.4-13 5.56-13 12.4 5.86 12.4 13 12.4z" fill="#cb319c"/><path fill="#ff5d4a" d="M370.32 808.07l-9.36-4.47-10.09-1.59v15.21l19.45 8.34v-17.49z"/><path fill="#e45261" d="M350.87 786.8v15.21l19.45 6.06v-18.31l-10.1-3.48-9.35.52z"/><path fill="#ff4d95" d="M370.32 775.02l-9.99-.08-9.46 2.93v8.93l19.45 2.96v-14.74z"/><path fill="#cb319c" d="M370.32 761.07l-10.3 1-9.15 8.2v7.6l19.45-2.85v-13.95z"/><path fill="#8a3293" d="M350.87 770.27l19.45-9.2v-21.21l-11.41 1.04-8.04 7.35v22.02z"/><path d="M426.17 697.94l-44.38 16.32L351.38 732a39.17 39.17 0 00-.51 6.26v10l19.45-8.39v-1.62c0-12 10.18-21.7 22.69-21.7h31.39l43.14-18.6z" fill="#523494"/><path d="M393 697.94c-21 0-38.47 14.78-41.63 34l74.79-34z" fill="#2d2d87"/></svg>