<svg data-name="Layer 1" xmlns="http://www.w3.org/2000/svg" viewBox="0 0 538.87 881.5"><path d="M242.59 0c.75-.95 103.32 46.35 175.93 163 14.89 23.92 123.07 203.65 54.29 306.54C428.89 535.24 353.2 509.17 294 596c-33.52 49.17-22 76.24-57 118.83-43.2 52.69-109.5 70.56-161 77.17l-32.34-12.3L65 758a544.21 544.21 0 00120.19-41.32c35-16.86 155.28-75.52 231.48-211.11 34.28-61 78.55-139.68 64.81-231.48C455.59 101 241.52 1.39 242.59 0z" fill="#8138c1"/><path d="M-29.67 464.59l17.1 9.56 263-470.47L242.08-1z" fill="#3a3439"/></svg>