<svg xmlns="http://www.w3.org/2000/svg" viewBox="0 0 932 910"><defs><style>.cls-3{fill:#2c292a}.cls-5{fill:#f8f8f9}.cls-7{fill:#4a494b}</style></defs><g id="Layer_2" data-name="Layer 2"><ellipse cx="466" cy="455" rx="466" ry="455" fill="#f6e6e6" id="Layer_16" data-name="Layer 16"/><path d="M531.92 221.17a44 44 0 00-18.43-9.17c-2-.45-21.94-4.61-35.72 7.86-12.88 11.66-11.73 30.07-11.42 35 1.82 29.29 32.62 56.5 76.29 71.2a108.93 108.93 0 0038-28.34c7.53-8.83 31.77-37.27 22.5-65.72-3.72-11.44-13.82-25.8-29-29-10.42-2.2-19.71 1.63-22.88 2.93a45.85 45.85 0 00-19.34 15.24zM415.12 315a30.23 30.23 0 00-14-2.54c-1.41.09-15.4 1.19-22.06 12.17-6.23 10.27-1.87 22.3-.71 25.52 6.94 19.16 32.61 31.3 64.34 32.6a75 75 0 0019.56-26.25c3.24-7.33 13.7-31 2-48.12-4.7-6.89-14.19-14.5-24.82-13.69-7.31.56-12.7 4.91-14.54 6.4a31.61 31.61 0 00-9.77 13.91zm259.05-29.74a30.28 30.28 0 00-8.25-11.57c-1.06-.91-11.86-9.88-24.29-6.66-11.62 3-16.89 14.68-18.3 17.8-8.39 18.57 1.55 45.17 23.38 68.23a75 75 0 0032.29-5.17c7.44-3 31.42-12.65 35-33.09 1.43-8.22-.06-20.28-8.24-27.12-5.64-4.7-12.54-5.34-14.89-5.56a31.65 31.65 0 00-16.7 3.14z" transform="translate(-134 -145)" fill="#c77c89" id="Layer_18" data-name="Layer 18"/><path class="cls-3" d="M759.61 957.92c25.55-13.62 37.66-29.44 43.84-39.91 35.16-59.67-.5-152.91 2-251.1.21-8.29.94-26.28 13.35-39.7 18.54-20 50.17-15.86 53.08-15.44 8.21 1.2 22.5 3.3 31.22 15.44 1.14 1.59 8.28 11.86 6 25.08-1.8 10.37-8.37 16.58-14 21.85-4.38 4.13-8 7.58-14 8.71-8.87 1.7-16.25-3.05-18.45-4.59a37.65 37.65 0 005.5-2.7 34.37 34.37 0 008.25-6.62c2.52-2.83 6.4-7.2 6.63-13.47.3-7.93-5.44-13.42-6.58-14.47-9.67-5.43-21.42-5-30.12 1-10.74 7.48-11.64 20-11.73 21.57a209.06 209.06 0 00-4 59.74c1.77 22.37 6.26 31.68 14.14 63.1 11.54 46 17.48 69 15.77 95.29-2.15 32.92-14.45 59.12-24.58 76.2z" transform="translate(-134 -145)" id="Layer_17" data-name="Layer 17"/><path class="cls-3" d="M424.77 957.92a355.94 355.94 0 0122.75-272.33l241.33-11.45a332.64 332.64 0 0144.89 114.6c14.4 76.39-1.84 138.79-12 169.18" transform="translate(-134 -145)" id="Layer_4" data-name="Layer 4"/><path d="M491.87 957.92c-15.07-36.1-36.62-102.79-26.48-184.83a350.9 350.9 0 0120.79-82.87l169.33 1.85a310.31 310.31 0 01-.46 267" transform="translate(-134 -145)" fill="#fff"/><path class="cls-3" d="M774.38 492.93c2.58-2.05-1-8.73-2.22-22.65-2.08-24.56 5.85-42.73 8.84-51.66 6-18.07 8.9-49.16-6.62-106a101.5 101.5 0 00-26 8.16c-49 23.07-63.5 79.11-66.6 92.43 68.22 70.79 88.15 83.24 92.6 79.72z" transform="translate(-134 -145)"/><path class="cls-3" d="M376.89 547.09a189 189 0 00-4.67-27.84c-10.63-43.14-30.78-58.06-40.1-97.19a155.67 155.67 0 01-4.12-40.78 176.19 176.19 0 0151 10.88c39.25 14.75 63.67 40.12 75.45 54.37z" transform="translate(-134 -145)" id="Layer_5" data-name="Layer 5"/><path class="cls-3" d="M795.23 573.26c-11.1 58.4-78.75 92.09-97.19 101.27-34.24 17.06-63.78 20.45-89 23.12-41.37 4.37-174.79 19-220.78-56.24-23.76-38.87-15.21-81.76-13.75-88.54C397 448 564.76 360.31 683.77 412.18c60.76 26.49 123.85 95.91 111.46 161.08z" transform="translate(-134 -145)" id="Layer_3" data-name="Layer 3"/><path class="cls-5" d="M447.52 685.59c15.24-8.78 57.5-35.27 78.8-79.86 11.27-23.61 14.54-43.14 14.54-43.14 2.5-15 4.25-40.53 4.79-48.48 1-14.67 1.33-24.53 8.75-32.64a32.85 32.85 0 0115.45-9.13c2.09 5.58 5.21 13.7 9.18 23.43 0 0 10.51 25.72 21 47.47 23.78 49.27 35.71 74 60.38 91.27 11.18 7.81 34.09 20.45 72.53 20a313.41 313.41 0 01-54.84 28.66c-16.71 6.7-97.7 37.5-195.43 13.33a312.13 312.13 0 01-35.15-10.91z" transform="translate(-134 -145)" id="Layer_10" data-name="Layer 10"/><path d="M574.42 627.21v-7.52A59.36 59.36 0 01559.9 600a34.87 34.87 0 0133-5.26 23.74 23.74 0 01-2 15.11 23.16 23.16 0 01-6.8 8l4.11 7.7z" transform="translate(-134 -145)" fill="#dabec1" id="Layer_12" data-name="Layer 12"/><path class="cls-7" d="M523.5 634.25a66.22 66.22 0 0016.68 6.62 65.54 65.54 0 0012.56 1.83 29.69 29.69 0 009.42-1.52 35.77 35.77 0 008.17-4.19 61.84 61.84 0 008.91-6.86 61.78 61.78 0 0029.46 7.31 34.69 34.69 0 007.9-2.16 41.08 41.08 0 006.95-3.77c3.24-2.07 7.26-4.67 11.87-7.77a42.62 42.62 0 00-5.71.91c-10.38 2.43-11.93 7.12-20 8.41a24.83 24.83 0 01-13.56-1.78 24.51 24.51 0 01-7.94-5.68c-1.58 0-3.28 0-5.08.19a57.27 57.27 0 00-8.7 1.42 37.25 37.25 0 01-15.37 8.79 40.22 40.22 0 01-16.6 1c-3.26-.54-5.32-1.34-10.73-2.06-3.44-.46-6.3-.63-8.23-.69z" transform="translate(-134 -145)" id="Layer_13" data-name="Layer 13"/><g id="Layer_14" data-name="Layer 14"><path class="cls-7" d="M321 623.74c.05.29 24.19-5.51 59.25-6.74 25.1-.88 41.59 1.07 51 2.5a248 248 0 0129.67 6.4l12.38-4.19a307.19 307.19 0 00-80-8.51c-41.12 1.05-72.4 10.21-72.3 10.54zM304.76 658c.1.28 22.94-9.44 57.31-16.47 24.61-5 41.19-5.83 50.68-6a248.87 248.87 0 0130.31 1.39q5.76-3.09 11.51-6.19a307.45 307.45 0 00-80.29 4.88c-40.28 7.84-69.63 22.06-69.52 22.39z" transform="translate(-134 -145)"/><path class="cls-7" d="M262.61 612.51a320.23 320.23 0 01188.85 1.59 279.59 279.59 0 00-96.13-20.76 262.82 262.82 0 00-92.72 19.17z" transform="translate(-134 -145)"/></g><path class="cls-7" d="M739 601.35c24.4-2.22 45.32-3.08 61.62-3.38 42.21-.77 58.57 2.13 71.59 5.64a170 170 0 0126.46 9.55 337.68 337.68 0 00-43.38-9.11 330.87 330.87 0 00-76.43-2 321.36 321.36 0 00-37.57 5.72q-1.19-3.22-2.29-6.42zm-1.84-19.83c13.05-.75 23.75-1.78 31.14-2.6 35.17-3.88 48.45-8.91 71.47-6.86a171.81 171.81 0 0127.72 4.81 182.34 182.34 0 00-44.31-1.45 539.59 539.59 0 00-66.86 10.48c-6.29 1.36-11.45 2.58-14.86 3.41zm159.84-31c0-.61-26.56-1.25-54.48-.8-28.37.46-46.51 1.84-61.57 4.47-13 2.26-26.08 5.63-26.08 5.63-5.49 1.42-10.15 2.77-13.73 3.85l-.58 5.66c5.94-1.49 13.78-3.37 23-5.32 10.35-2.18 29.87-6 54.33-8.93 45.71-5.45 79.11-3.88 79.11-4.56z" transform="translate(-134 -145)" id="Layer_15" data-name="Layer 15"/></g><ellipse cx="339.9" cy="405.93" rx="39.76" ry="37.72" fill="#96ba56" id="Layer_7" data-name="Layer 7"/><ellipse cx="537.81" cy="387.92" rx="38.63" ry="35.68" fill="#75a5bd" id="Layer_8" data-name="Layer 8"/><g id="Layer_9" data-name="Layer 9"><circle class="cls-3" cx="335.63" cy="404.16" r="26.51"/><circle class="cls-5" cx="326.44" cy="399.69" r="11.76"/></g><g id="Layer_11" data-name="Layer 11"><circle class="cls-3" cx="531.3" cy="385.16" r="26.51"/><circle class="cls-5" cx="525.22" cy="379.65" r="11.76"/></g></svg>