<svg xmlns="http://www.w3.org/2000/svg" viewBox="0 0 887.04 500"><path fill="#d4eaa4" d="M0 500l33.33-293.19L24.07 500l57.41-270.37L40.74 500h101.85l-31.48-275.93 50 275.93V151.85L185.19 500 290.74 44.44 207.41 500h148.15l-44.45-131.48L375.93 500 300 206.81 396.3 500 350 0l74.07 500 40.86-383.33L448.15 500h116.67l-29.64-168.52L581.48 500V206.81L601.85 500l64.82-420.37L622.22 500 700 250l-48.15 250h146.3l-40.74-164.81L818.52 500l-29.63-293.19 50 293.19V144.44l16.67 346.3 31.48-187.04L872.22 500H0z"/></svg>