<svg xmlns="http://www.w3.org/2000/svg" viewBox="0 0 173.37 173.6"><path d="M102.13 168.82c2.86.78 11.19 3.07 20 .39 12.85-3.94 20.4-16.38 22.68-25.94 5.73-23.76-17.53-44.64-24.75-51.12a94.44 94.44 0 00-35.09-19.59c-36.5 15.65-60.88 40.3-60.07 64.11.13 4 .63 19 12.69 27.27 12.9 8.88 29.78 3.79 31.47 3.25a39.15 39.15 0 0015.16-9 39.37 39.37 0 0017.91 10.63z" fill="none" stroke="#353535" stroke-miterlimit="10" stroke-width="5"/><ellipse cx="64.15" cy="30.35" rx="21.16" ry="27.85" fill="none" stroke="#2b2b2b" stroke-miterlimit="10" stroke-width="5"/><ellipse cx="145.76" cy="69.99" rx="26.21" ry="22.23" transform="rotate(-73.85 148.7 69.554)" fill="none" stroke="#2b2b2b" stroke-miterlimit="10" stroke-width="5"/><ellipse cx="22.33" cy="70.1" rx="22.23" ry="26.21" transform="rotate(-10 37.927 56.875)" fill="none" stroke="#2b2b2b" stroke-miterlimit="10" stroke-width="5"/><ellipse cx="114.61" cy="30.35" rx="21.72" ry="27.85" fill="none" stroke="#2b2b2b" stroke-miterlimit="10" stroke-width="5"/><text transform="translate(71.54 152.51)" font-size="100" font-family="ArialRoundedMTBold,Arial Rounded MT Bold">i</text></svg>