<svg version="1.1" id="Layer_1" xmlns="http://www.w3.org/2000/svg" x="0" y="0" viewBox="0 0 646.9 756.7" xml:space="preserve"><style>.st0{fill:#bf8443}.st2{fill:#f8f8f9}.st4{fill:#4a494b}.st5{fill:#d3c479;stroke:#191919;stroke-width:3;stroke-miterlimit:10}.st6{fill:#2c292a}</style><path class="st0" d="M497 755.6c25.5-13.6 37.7-29.4 43.8-39.9 35.2-59.7-.5-152.9 2-251.1.2-8.3.9-26.3 13.3-39.7 18.5-20 50.2-15.9 53.1-15.4 8.2 1.2 22.5 3.3 31.2 15.4 1.1 1.6 8.3 11.9 6 25.1-1.8 10.4-8.4 16.6-14 21.8-4.4 4.1-8 7.6-14 8.7-8.9 1.7-16.2-3-18.5-4.6 1.9-.7 3.7-1.7 5.5-2.7 3.1-1.8 5.9-4 8.2-6.6 2.5-2.8 6.4-7.2 6.6-13.5.3-7.9-5.4-13.4-6.6-14.5-9.7-5.4-21.4-5-30.1 1-10.7 7.5-11.6 20-11.7 21.6-4.2 19.6-5.5 39.7-4 59.7 1.8 22.4 6.3 31.7 14.1 63.1 11.5 46 17.5 69 15.8 95.3-2.2 32.9-14.5 59.1-24.6 76.2l-76.1.1z" id="Layer_17"/><path class="st0" d="M162.2 755.6c-29-90.2-20.8-188.2 22.8-272.3l241.3-11.5c22 35.1 37.2 73.9 44.9 114.6 14.4 76.4-1.8 138.8-12 169.2" id="Layer_4"/><path d="M229.3 755.6c-15.1-36.1-36.6-102.8-26.5-184.8 3.5-28.4 10.5-56.2 20.8-82.9l169.3 1.8c40.1 84.5 39.9 182.6-.5 267" fill="#fff"/><path class="st0" d="M511.8 290.6c2.6-2-1-8.7-2.2-22.6-2.1-24.6 5.8-42.7 8.8-51.7 6-18.1 8.9-49.2-6.6-106-9 1.5-17.7 4.3-26 8.2-49 23.1-63.5 79.1-66.6 92.4 68.2 70.8 88.1 83.2 92.6 79.7z"/><path class="st0" d="M114.3 344.8c-.9-9.4-2.4-18.7-4.7-27.8-10.6-43.1-30.8-58.1-40.1-97.2-3.2-13.4-4.6-27.1-4.1-40.8 17.4 1.1 34.6 4.7 51 10.9 39.2 14.8 63.7 40.1 75.5 54.4l-77.6 100.5z" id="Layer_5"/><path class="st0" d="M532.6 371c-11.1 58.4-78.8 92.1-97.2 101.3-34.2 17.1-63.8 20.5-89 23.1-41.4 4.4-174.8 19-220.8-56.2-23.8-38.9-15.2-81.8-13.8-88.5 22.6-105 190.4-192.7 309.4-140.8C481.9 236.4 545 305.8 532.6 371z" id="Layer_3"/><path class="st2" d="M184.9 483.3c15.2-8.8 57.5-35.3 78.8-79.9 11.3-23.6 14.5-43.1 14.5-43.1 2.5-15 4.2-40.5 4.8-48.5 1-14.7 1.3-24.5 8.8-32.6 4.2-4.4 9.6-7.6 15.5-9.1 2.1 5.6 5.2 13.7 9.2 23.4 0 0 10.5 25.7 21 47.5 23.8 49.3 35.7 74 60.4 91.3 11.2 7.8 34.1 20.5 72.5 20-17.3 11.3-35.7 20.9-54.8 28.7-16.7 6.7-97.7 37.5-195.4 13.3-12.1-3.1-23.8-6.7-35.3-11z" id="Layer_10"/><path d="M311.8 437.2v-7.5c-6.2-5.5-11.1-12.2-14.5-19.7 9.4-7.3 21.8-9.2 33-5.3 1 5.1.3 10.4-2 15.1-1.6 3.2-4 5.9-6.8 8l4.1 7.7-13.8 1.7z" fill="#dabec1" id="Layer_12"/><path class="st4" d="M260.9 444.2c5.2 3 10.8 5.2 16.7 6.6 4.1 1 8.3 1.6 12.6 1.8 3.2 0 6.4-.5 9.4-1.5 2.9-1 5.6-2.4 8.2-4.2 3.2-2 6.2-4.3 8.9-6.9 9.1 4.8 19.2 7.4 29.5 7.3 2.7-.4 5.4-1.1 7.9-2.2 2.4-1 4.8-2.3 7-3.8 3.2-2.1 7.3-4.7 11.9-7.8-1.9.2-3.8.5-5.7.9-10.4 2.4-11.9 7.1-20 8.4-4.6.7-9.3.1-13.6-1.8-3-1.3-5.7-3.3-7.9-5.7-1.6 0-3.3 0-5.1.2-2.9.2-5.8.7-8.7 1.4-4.3 4.1-9.6 7.1-15.4 8.8-5.4 1.5-11.1 1.8-16.6 1-3.3-.5-5.3-1.3-10.7-2.1-3.6-.2-6.5-.3-8.4-.4z" id="Layer_13"/><g id="Layer_14"><path class="st4" d="M58.4 421.4c0 .3 24.2-5.5 59.2-6.7 25.1-.9 41.6 1.1 51 2.5 10 1.5 19.9 3.7 29.7 6.4l12.4-4.2c-26.2-6.3-53.1-9.2-80-8.5-41.1 1-72.4 10.2-72.3 10.5zm-16.2 34.3c.1.3 22.9-9.4 57.3-16.5 24.6-5 41.2-5.8 50.7-6 10.1-.2 20.2.3 30.3 1.4 3.8-2.1 7.7-4.1 11.5-6.2-26.9-1.9-53.9-.3-80.3 4.9-40.3 7.8-69.7 22.1-69.5 22.4z"/><path class="st4" d="M0 410.2c61.7-18.5 127.5-17.9 188.9 1.6-30.6-12.5-63.1-19.6-96.1-20.8-31.9.8-63.3 7.2-92.8 19.2z"/></g><path class="st4" d="M476.4 399c24.4-2.2 45.3-3.1 61.6-3.4 42.2-.8 58.6 2.1 71.6 5.6 9.1 2.4 17.9 5.6 26.5 9.5-14.2-4-28.7-7-43.4-9.1-25.3-3.6-51-4.3-76.4-2-12.6 1.2-25.2 3.1-37.6 5.7-.8-2-1.6-4.1-2.3-6.3zm-1.9-19.8c13-.8 23.8-1.8 31.1-2.6 35.2-3.9 48.5-8.9 71.5-6.9 9.4.8 18.6 2.5 27.7 4.8-14.7-2.3-29.5-2.8-44.3-1.5-22.5 2.1-44.8 5.6-66.9 10.5-6.3 1.4-11.5 2.6-14.9 3.4l-4.2-7.7zm159.9-31c0-.6-26.6-1.2-54.5-.8-28.4.5-46.5 1.8-61.6 4.5-13 2.3-26.1 5.6-26.1 5.6-5.5 1.4-10.2 2.8-13.7 3.8l-.5 5.7c5.9-1.5 13.8-3.4 23-5.3 10.3-2.2 29.9-6 54.3-8.9 45.7-5.5 79.1-3.9 79.1-4.6z" id="Layer_15"/><ellipse class="st5" cx="211.3" cy="348.6" rx="39.8" ry="37.7" id="Layer_7"/><ellipse class="st5" cx="409.2" cy="330.6" rx="38.6" ry="35.7" id="Layer_8"/><g id="Layer_9"><circle transform="rotate(-62.082 223.019 344.785)" class="st6" cx="223" cy="344.8" r="26.5"/><circle transform="rotate(-62.082 229.263 337.753)" class="st2" cx="229.3" cy="337.7" r="11.8"/></g><g id="Layer_11"><circle class="st6" cx="416.9" cy="326" r="26.5"/><circle class="st2" cx="419.9" cy="319" r="11.8"/></g></svg>