<svg xmlns="http://www.w3.org/2000/svg" viewBox="0 0 168.36 167.97"><path d="M81.68 12.28a39.26 39.26 0 00-15.16-9c-1.69-.54-18.57-5.63-31.47 3.25-12.06 8.3-12.56 23.26-12.69 27.27-.81 23.81 23.57 48.46 60.07 64.11a94.31 94.31 0 0035.09-19.59c7.22-6.48 30.45-27.35 24.75-51.12-2.28-9.56-9.83-22-22.68-25.94-8.81-2.68-17.14-.39-20 .39a39.48 39.48 0 00-17.91 10.63z" fill="#c77c89"/><ellipse cx="61.61" cy="140.12" rx="21.16" ry="27.85" fill="#c77c89"/><ellipse cx="659.11" cy="554.42" rx="22.23" ry="26.21" transform="rotate(-16.15 -1206.161 2135.34)" fill="#c77c89"/><ellipse cx="535.69" cy="554.42" rx="26.21" ry="22.23" transform="rotate(-80 6.957 632.041)" fill="#c77c89"/><ellipse cx="112.07" cy="140.12" rx="21.72" ry="27.85" fill="#c77c89"/></svg>